<svg width="24" height="24" viewBox="0 0 24 24" fill="none" xmlns="http://www.w3.org/2000/svg">
<path opacity="0.5" d="M16.3646 10.3625H15.4485C15.1765 9.30892 14.6144 8.35281 13.8261 7.60276C13.0379 6.85272 12.055 6.33881 10.9893 6.11944C9.92355 5.90007 8.81765 5.98403 7.79724 6.36179C6.77683 6.73954 5.88284 7.39594 5.21685 8.25639C4.55086 9.11685 4.13957 10.1469 4.02972 11.2294C3.91987 12.3119 4.11587 13.4035 4.59544 14.3802C5.075 15.3569 5.81891 16.1795 6.74264 16.7546C7.66636 17.3296 8.73286 17.634 9.82094 17.6332H16.3646C17.3288 17.6332 18.2535 17.2502 18.9352 16.5684C19.617 15.8867 20 14.962 20 13.9978C20 13.0337 19.617 12.109 18.9352 11.4272C18.2535 10.7455 17.3288 10.3625 16.3646 10.3625Z" stroke="#253F66" stroke-linecap="round" stroke-linejoin="round"/>
</svg>