<svg width="202" height="174" viewBox="0 0 202 174" fill="none" xmlns="http://www.w3.org/2000/svg">
<g opacity="0.7">
<path d="M101.193 12.2212C101.164 12.2212 101.531 10.4185 101.565 10.288C101.981 8.99752 103.547 6.75494 105.06 6.75977C105.312 6.76688 105.559 6.82704 105.786 6.93634C106.014 7.04563 106.215 7.2016 106.378 7.39407C106.541 7.58653 106.661 7.81117 106.731 8.05331C106.801 8.29545 106.82 8.54967 106.785 8.79936C106.674 9.86265 105.717 10.7713 104.852 11.2933C103.837 11.9264 101.193 12.2212 101.193 12.2212Z" fill="#253F66"/>
<path d="M98.2593 0.0996528C99.7092 0.611965 100.396 3.25086 100.347 4.60414C100.347 4.72013 100.077 6.53739 100.052 6.53739H100.023C100.135 6.95304 100.255 7.40252 100.376 7.8955C100.589 8.80413 100.821 9.82875 101 10.9694C101.207 12.1912 101.343 13.4242 101.406 14.6619C101.483 16.0488 101.436 17.4398 101.266 18.8184C101.263 18.8344 101.263 18.8507 101.266 18.8667C101.454 18.4656 102.015 17.354 102.063 17.2766C102.807 16.1457 104.905 14.3767 106.369 14.7972C106.61 14.8706 106.832 14.9938 107.022 15.1588C107.211 15.3238 107.364 15.527 107.47 15.755C107.576 15.9831 107.632 16.2308 107.636 16.4822C107.639 16.7335 107.59 16.9828 107.491 17.2138C107.104 18.2094 105.944 18.8329 104.973 19.1084C103.875 19.4225 101.43 19.0552 101.237 19.0214C101.03 20.4206 100.73 21.8044 100.338 23.1634C100.112 23.956 99.8671 24.747 99.6029 25.5364C99.7721 25.1933 99.9316 24.8888 99.9557 24.8501C100.7 23.7144 102.802 21.9503 104.262 22.3707C104.503 22.4441 104.725 22.5673 104.914 22.7323C105.104 22.8974 105.257 23.1005 105.363 23.3285C105.468 23.5566 105.525 23.8044 105.528 24.0557C105.532 24.3071 105.483 24.5564 105.383 24.7873C104.997 25.7829 103.837 26.4064 102.865 26.6819C101.894 26.9574 99.7866 26.6819 99.2356 26.6094L98.9311 27.518C98.4478 28.968 97.921 30.4179 97.4812 31.8389C97.3217 32.3222 97.1815 32.8441 97.0414 33.3468C97.196 33.0423 97.3265 32.7862 97.3507 32.7475C98.0901 31.6165 100.193 29.8476 101.652 30.2681C101.892 30.3422 102.114 30.4658 102.303 30.6309C102.493 30.796 102.645 30.9989 102.751 31.2265C102.857 31.4542 102.915 31.7016 102.919 31.9527C102.924 32.2039 102.876 32.4532 102.778 32.6847C102.392 33.6851 101.227 34.3038 100.255 34.5841C99.2839 34.8644 97.3845 34.6179 96.7272 34.5261C96.5967 35.0432 96.471 35.5604 96.3696 36.0679C96.3067 36.4207 96.2246 36.7493 96.1811 37.1021L96.0361 38.1413C95.9684 38.8034 95.8911 39.4849 95.8427 40.1325C95.8041 40.582 95.7751 41.0122 95.7461 41.4471C95.9007 40.9638 96.2294 39.9634 96.2294 39.886C96.7646 38.8227 97.5633 37.9142 98.5493 37.2471C98.6019 37.124 98.6683 37.0072 98.7475 36.8992C98.8843 36.688 99.0641 36.5081 99.2753 36.3712C99.4864 36.2343 99.724 36.1435 99.9726 36.1047C100.221 36.0659 100.475 36.0801 100.718 36.1462C100.961 36.2123 101.187 36.3289 101.382 36.4883C102.532 37.4791 102.242 40.1953 101.715 41.4423C101.686 41.5148 101.256 42.2736 100.98 42.7521C101.188 42.4959 101.382 42.2446 101.599 41.9884C102.019 41.4713 102.454 40.9687 102.918 40.4273L103.629 39.6589C103.861 39.3979 104.141 39.1756 104.397 38.8904C105.002 38.3056 105.644 37.7401 106.306 37.1843C105.857 36.817 104.272 35.483 103.817 34.5744C103.363 33.6658 103.039 32.3947 103.513 31.4329C103.617 31.2035 103.768 30.9986 103.957 30.8314C104.145 30.6642 104.367 30.5385 104.607 30.4624C104.847 30.3863 105.1 30.3615 105.351 30.3897C105.601 30.4178 105.843 30.4982 106.06 30.6257C107.341 31.4329 107.471 34.1636 107.138 35.4589C107.138 35.541 106.77 36.4545 106.572 36.9523C106.973 36.6237 107.37 36.295 107.785 35.9857C108.984 35.0626 110.226 34.1588 111.459 33.255L112.585 32.4237C112.425 32.2932 110.511 30.7466 109.999 29.7268C109.55 28.823 109.221 27.547 109.695 26.5901C109.798 26.3602 109.949 26.1547 110.137 25.9871C110.326 25.8195 110.547 25.6935 110.788 25.6173C111.028 25.5411 111.282 25.5165 111.532 25.5451C111.783 25.5736 112.024 25.6547 112.242 25.7829C113.527 26.5852 113.653 29.316 113.319 30.6161C113.295 30.7127 112.797 32.0274 112.657 32.356C113.479 31.7422 114.296 31.1236 115.074 30.4759C116.133 29.6128 117.134 28.6813 118.07 27.6872C117.998 27.6244 115.992 26.0198 115.47 24.9806C115.016 24.0768 114.692 22.7961 115.166 21.8391C115.269 21.6099 115.42 21.405 115.608 21.2379C115.796 21.0707 116.017 20.945 116.257 20.8689C116.497 20.7928 116.75 20.7679 117 20.796C117.25 20.8241 117.491 20.9045 117.708 21.032C118.993 21.8391 119.124 24.5698 118.79 25.8651C118.79 25.9521 118.389 26.9526 118.201 27.4262L118.273 27.4745C119.189 26.447 120.012 25.3408 120.733 24.1687C121.139 23.5259 121.487 22.8927 121.816 22.2693C121.41 22.0083 119.578 20.7951 119.003 19.9107C118.428 19.0262 117.993 17.8276 118.355 16.8223C118.433 16.5827 118.56 16.3621 118.729 16.1749C118.898 15.9878 119.104 15.8383 119.334 15.7361C119.564 15.634 119.814 15.5815 120.066 15.5821C120.317 15.5827 120.566 15.6364 120.796 15.7397C122.164 16.4018 122.589 19.1229 122.401 20.4423C122.401 20.5148 122.207 21.2446 122.067 21.7714C122.207 21.4863 122.362 21.1963 122.493 20.9208C122.976 19.8913 123.387 18.9151 123.725 18.0209C123.918 17.5376 124.078 17.0785 124.208 16.6531C123.943 16.1698 122.908 14.3139 122.807 13.2699C122.705 12.226 122.87 10.9597 123.657 10.2347C123.837 10.0582 124.051 9.92142 124.287 9.83326C124.523 9.7451 124.774 9.70755 125.026 9.72305C125.277 9.73855 125.522 9.80675 125.745 9.92322C125.968 10.0397 126.164 10.2018 126.32 10.3991C127.229 11.6122 126.364 14.2076 125.581 15.3095C125.513 15.4062 124.281 16.7595 124.266 16.7595V16.7305C124.131 17.1413 123.986 17.5811 123.812 18.0548C123.493 18.9344 123.121 19.9203 122.642 20.9546C122.137 22.0864 121.567 23.1885 120.936 24.2557C120.233 25.4527 119.424 26.5849 118.52 27.6389L118.486 27.6775C118.863 27.4455 119.936 26.8269 120.028 26.7882C121.275 26.2566 123.991 25.9569 124.987 27.0976C125.147 27.2917 125.264 27.5173 125.332 27.7599C125.399 28.0025 125.414 28.2565 125.377 28.5054C125.34 28.7543 125.25 28.9926 125.115 29.2047C124.979 29.4168 124.8 29.598 124.59 29.7364C123.715 30.3551 122.406 30.2198 121.439 29.9298C120.352 29.5818 118.539 27.9289 118.375 27.7935C117.431 28.8467 116.417 29.8349 115.34 30.7514C114.716 31.2879 114.068 31.8099 113.406 32.327C113.74 32.1337 114.039 31.9645 114.083 31.9452C115.325 31.4135 118.041 31.1139 119.037 32.2545C119.198 32.4483 119.316 32.6739 119.384 32.9166C119.452 33.1593 119.467 33.4136 119.43 33.6627C119.392 33.9119 119.303 34.1503 119.167 34.3624C119.031 34.5745 118.851 34.7554 118.641 34.8934C117.771 35.512 116.456 35.3767 115.494 35.0867C114.532 34.7967 112.923 33.3951 112.507 33.023C112.251 33.2163 112.024 33.4145 111.749 33.6126C110.535 34.5406 109.332 35.4637 108.148 36.411C107.737 36.7397 107.346 37.0828 106.949 37.426L107.539 37.0973C108.781 36.5657 111.497 36.2612 112.493 37.4018C112.653 37.5963 112.771 37.8224 112.838 38.0653C112.906 38.3083 112.921 38.5626 112.884 38.8119C112.846 39.0612 112.757 39.2999 112.621 39.5124C112.486 39.7249 112.307 39.9066 112.097 40.0455C111.227 40.6642 109.912 40.5288 108.95 40.234C107.988 39.9392 106.534 38.6777 106.05 38.2379C105.659 38.6004 105.263 38.9629 104.9 39.3302C104.654 39.5864 104.417 39.8135 104.175 40.089L103.479 40.872C103.059 41.3891 102.619 41.9159 102.218 42.4283C101.937 42.7811 101.676 43.1242 101.415 43.4722C101.816 43.1339 102.628 42.5056 102.701 42.4476C103.846 41.7323 106.49 40.9976 107.645 42.0029C107.832 42.1711 107.982 42.3768 108.085 42.6066C108.187 42.8364 108.24 43.0853 108.24 43.3369C108.24 43.5885 108.187 43.8373 108.085 44.0672C107.982 44.297 107.832 44.5027 107.645 44.6708C106.872 45.4151 105.557 45.4925 104.562 45.3378C103.46 45.1638 101.469 43.8879 101.222 43.7042C100.787 44.2794 100.371 44.8352 99.9847 45.3716C98.646 47.2227 97.602 48.8177 96.8867 49.9389L96.8142 50.0549L95.8862 49.6055L96.0312 49.3831C96.7804 48.2619 97.8727 46.6766 99.2646 44.84C99.7044 44.2552 100.183 43.6414 100.681 43.0179C100.163 42.4522 99.6789 41.8567 99.2308 41.2345C98.1626 41.655 95.9491 41.6695 95.6591 41.6695C95.6156 42.3848 95.5769 43.0856 95.5479 43.7429C95.4513 46.0241 95.4609 47.9284 95.4851 49.2623V49.417L94.4653 48.9337C94.4653 47.6094 94.5185 45.8211 94.6538 43.7042C94.6973 42.9792 94.7601 42.2011 94.8326 41.4036C94.5475 41.3311 92.2421 40.7415 91.3721 40.0455C90.5843 39.4124 89.753 38.3926 89.782 37.3196C89.7801 37.0679 89.8311 36.8186 89.9319 36.588C90.0327 36.3573 90.1809 36.1504 90.3669 35.9808C90.5529 35.8112 90.7726 35.6827 91.0115 35.6036C91.2505 35.5245 91.5034 35.4966 91.7539 35.5217C93.257 35.715 94.5185 38.1413 94.7649 39.4704C94.7649 39.5525 94.8423 40.437 94.8713 40.9687C94.9051 40.6448 94.9293 40.3258 94.9679 40.002C95.0308 39.3399 95.1178 38.6826 95.2096 37.9721C95.2628 37.629 95.3208 37.2858 95.3739 36.9378C95.4271 36.5898 95.5189 36.2322 95.5914 35.8745C95.7751 35.0529 95.9974 34.2264 96.2439 33.4C95.6639 33.342 93.6098 33.1003 92.7302 32.5928C91.8506 32.0853 90.8743 31.2057 90.7438 30.1424C90.7034 29.8937 90.7158 29.6393 90.7804 29.3957C90.8449 29.1521 90.96 28.9249 91.1183 28.7288C91.2765 28.5327 91.4743 28.3722 91.6987 28.2577C91.9232 28.1431 92.1692 28.0772 92.4209 28.0642C93.9337 28.0303 95.5479 30.2343 95.9926 31.515C96.0216 31.5924 96.2391 32.5445 96.3502 33.0713C96.5 32.588 96.645 32.0805 96.8335 31.5827C97.3168 30.1328 97.863 28.7167 98.3946 27.2812C98.559 26.8414 98.7136 26.4016 98.8779 25.9618C98.6701 25.9618 96.2197 25.7056 95.2338 25.1401C94.359 24.6568 93.3827 23.753 93.2473 22.6897C93.2077 22.4411 93.2207 22.187 93.2856 21.9437C93.3504 21.7005 93.4656 21.4735 93.6237 21.2776C93.7818 21.0817 93.9793 20.9212 94.2033 20.8064C94.4274 20.6917 94.6731 20.6253 94.9244 20.6115C96.442 20.5777 98.0563 22.7816 98.501 24.0623C98.5348 24.159 98.8441 25.5123 98.9069 25.8796C99.2549 24.913 99.5981 23.9463 99.8736 22.9797C100.282 21.6747 100.605 20.3444 100.84 18.9972C100.744 18.9972 98.1868 18.7556 97.1767 18.1756C96.2971 17.6923 95.3208 16.7885 95.1903 15.7252C95.1498 15.4767 95.1623 15.2225 95.2269 14.9792C95.2914 14.7359 95.4066 14.509 95.5649 14.3133C95.7232 14.1175 95.9211 13.9574 96.1455 13.8435C96.37 13.7295 96.6159 13.6641 96.8674 13.6518C98.3801 13.6131 99.9944 15.817 100.439 17.0978C100.468 17.18 100.71 18.2239 100.811 18.7266H100.893C101.093 17.3652 101.171 15.9887 101.125 14.6136C101.125 13.8548 101.053 13.1346 100.98 12.4338C100.497 12.4338 98.3028 12.4338 97.3362 12.0133C96.3696 11.5929 95.3401 10.8389 95.0888 9.79976C95.0217 9.55634 95.0069 9.30151 95.0451 9.05195C95.0834 8.80238 95.1739 8.56371 95.3108 8.35155C95.4476 8.1394 95.6278 7.95854 95.8394 7.82081C96.051 7.68309 96.2893 7.5916 96.5387 7.55235C98.0418 7.34452 99.8881 9.36478 100.473 10.5827C100.502 10.6504 100.753 11.3609 100.922 11.8828C100.889 11.5639 100.855 11.2352 100.811 10.9162C100.661 9.78042 100.449 8.75097 100.255 7.8375C100.139 7.32036 100.028 6.87088 99.9171 6.4214C99.4338 6.17974 97.5392 5.18411 96.8915 4.38181C96.2439 3.57951 95.6639 2.41473 95.9249 1.38043C95.9827 1.13619 96.0911 0.906788 96.2431 0.707077C96.3951 0.507365 96.5873 0.34179 96.8074 0.221064C97.0274 0.100338 97.2703 0.0271506 97.5204 0.00623641C97.7706 -0.0146778 98.0223 0.0171474 98.2593 0.0996528Z" fill="#253F66"/>
<path d="M125.652 23.4389C124.468 23.3906 122.1 22.1775 122.1 22.1775C122.1 22.1775 123.371 20.858 123.463 20.7855C124.521 19.9446 127.063 18.9344 128.325 19.7754C128.531 19.9199 128.704 20.1063 128.833 20.3223C128.963 20.5384 129.045 20.7794 129.074 21.0294C129.104 21.2794 129.081 21.5329 129.006 21.7732C128.93 22.0135 128.806 22.2353 128.639 22.424C127.962 23.2504 126.662 23.4824 125.652 23.4389Z" fill="#253F66"/>
<g opacity="0.5">
<path opacity="0.5" d="M101.193 12.2212C101.164 12.2212 101.531 10.4185 101.565 10.288C101.981 8.99752 103.547 6.75494 105.06 6.75977C105.312 6.76688 105.559 6.82704 105.786 6.93634C106.014 7.04563 106.215 7.2016 106.378 7.39407C106.541 7.58653 106.661 7.81116 106.731 8.05331C106.801 8.29545 106.82 8.54967 106.785 8.79936C106.674 9.86265 105.717 10.7713 104.852 11.2933C103.837 11.9264 101.193 12.2212 101.193 12.2212Z" fill="white"/>
<path opacity="0.5" d="M98.2593 0.0996528C99.7092 0.611965 100.396 3.25086 100.347 4.60414C100.347 4.72013 100.077 6.53739 100.052 6.53739H100.023C100.135 6.95304 100.255 7.40252 100.376 7.8955C100.589 8.80413 100.821 9.82875 101 10.9694C101.207 12.1912 101.343 13.4242 101.406 14.6619C101.483 16.0488 101.436 17.4398 101.266 18.8184C101.263 18.8344 101.263 18.8507 101.266 18.8667C101.454 18.4656 102.015 17.354 102.063 17.2766C102.807 16.1457 104.905 14.3767 106.369 14.7972C106.61 14.8706 106.832 14.9938 107.022 15.1588C107.211 15.3238 107.364 15.527 107.47 15.755C107.576 15.9831 107.632 16.2308 107.636 16.4822C107.639 16.7335 107.59 16.9828 107.491 17.2138C107.104 18.2094 105.944 18.8329 104.973 19.1084C103.875 19.4225 101.43 19.0552 101.237 19.0214C101.03 20.4206 100.73 21.8044 100.338 23.1634C100.112 23.956 99.8671 24.747 99.6029 25.5364C99.7721 25.1933 99.9316 24.8888 99.9557 24.8501C100.7 23.7144 102.802 21.9503 104.262 22.3707C104.503 22.4441 104.725 22.5673 104.914 22.7323C105.104 22.8974 105.257 23.1005 105.363 23.3285C105.468 23.5566 105.525 23.8044 105.528 24.0557C105.532 24.3071 105.483 24.5564 105.383 24.7873C104.997 25.7829 103.837 26.4064 102.865 26.6819C101.894 26.9574 99.7866 26.6819 99.2356 26.6094L98.9311 27.518C98.4478 28.968 97.921 30.4179 97.4812 31.8389C97.3217 32.3222 97.1815 32.8441 97.0414 33.3468C97.196 33.0423 97.3265 32.7862 97.3507 32.7475C98.0901 31.6165 100.193 29.8476 101.652 30.2681C101.892 30.3422 102.114 30.4658 102.303 30.6309C102.493 30.796 102.645 30.9989 102.751 31.2265C102.857 31.4542 102.915 31.7016 102.919 31.9527C102.924 32.2039 102.876 32.4532 102.778 32.6847C102.392 33.6851 101.227 34.3038 100.255 34.5841C99.2839 34.8644 97.3845 34.6179 96.7272 34.5261C96.5967 35.0432 96.471 35.5604 96.3696 36.0679C96.3067 36.4207 96.2246 36.7493 96.1811 37.1021L96.0361 38.1413C95.9684 38.8034 95.8911 39.4849 95.8427 40.1325C95.8041 40.582 95.7751 41.0121 95.7461 41.4471C95.9007 40.9638 96.2294 39.9634 96.2294 39.886C96.7646 38.8227 97.5633 37.9142 98.5493 37.2471C98.6019 37.124 98.6683 37.0072 98.7475 36.8992C98.8843 36.688 99.0641 36.5081 99.2753 36.3712C99.4864 36.2343 99.724 36.1435 99.9726 36.1047C100.221 36.0659 100.475 36.0801 100.718 36.1462C100.961 36.2123 101.187 36.3289 101.382 36.4883C102.532 37.4791 102.242 40.1953 101.715 41.4423C101.686 41.5148 101.256 42.2736 100.98 42.7521C101.188 42.4959 101.382 42.2446 101.599 41.9884C102.019 41.4713 102.454 40.9687 102.918 40.4273L103.629 39.6589C103.861 39.3979 104.141 39.1756 104.397 38.8904C105.002 38.3056 105.644 37.7401 106.306 37.1843C105.857 36.817 104.272 35.483 103.817 34.5744C103.363 33.6658 103.039 32.3947 103.513 31.4329C103.617 31.2035 103.768 30.9986 103.957 30.8314C104.145 30.6642 104.367 30.5385 104.607 30.4624C104.847 30.3863 105.1 30.3615 105.351 30.3897C105.601 30.4178 105.843 30.4982 106.06 30.6257C107.341 31.4329 107.471 34.1636 107.138 35.4589C107.138 35.541 106.77 36.4545 106.572 36.9523C106.973 36.6237 107.37 36.295 107.785 35.9857C108.984 35.0626 110.226 34.1588 111.459 33.255L112.585 32.4237C112.425 32.2932 110.511 30.7466 109.999 29.7268C109.55 28.823 109.221 27.547 109.695 26.5901C109.798 26.3602 109.949 26.1547 110.137 25.9871C110.326 25.8195 110.547 25.6935 110.788 25.6173C111.028 25.5411 111.282 25.5165 111.532 25.5451C111.783 25.5736 112.024 25.6547 112.242 25.7829C113.527 26.5852 113.653 29.316 113.319 30.6161C113.295 30.7127 112.797 32.0274 112.657 32.356C113.479 31.7422 114.296 31.1236 115.074 30.4759C116.133 29.6128 117.134 28.6813 118.07 27.6872C117.998 27.6244 115.992 26.0198 115.47 24.9806C115.016 24.0768 114.692 22.7961 115.166 21.8391C115.269 21.6099 115.42 21.405 115.608 21.2379C115.796 21.0707 116.017 20.945 116.257 20.8689C116.497 20.7928 116.75 20.7679 117 20.796C117.25 20.8241 117.491 20.9045 117.708 21.032C118.993 21.8391 119.124 24.5698 118.79 25.8651C118.79 25.9521 118.389 26.9526 118.201 27.4262L118.273 27.4745C119.189 26.447 120.012 25.3408 120.733 24.1687C121.139 23.5259 121.487 22.8927 121.816 22.2693C121.41 22.0083 119.578 20.7951 119.003 19.9107C118.428 19.0262 117.993 17.8276 118.355 16.8223C118.433 16.5827 118.56 16.3621 118.729 16.1749C118.898 15.9878 119.104 15.8383 119.334 15.7361C119.564 15.634 119.814 15.5815 120.066 15.5821C120.317 15.5827 120.566 15.6364 120.796 15.7397C122.164 16.4018 122.589 19.1229 122.401 20.4423C122.401 20.5148 122.207 21.2446 122.067 21.7714C122.207 21.4863 122.362 21.1963 122.493 20.9208C122.976 19.8913 123.387 18.9151 123.725 18.0209C123.918 17.5376 124.078 17.0785 124.208 16.6531C123.943 16.1698 122.908 14.3139 122.807 13.2699C122.705 12.226 122.87 10.9597 123.657 10.2347C123.837 10.0582 124.051 9.92142 124.287 9.83326C124.523 9.7451 124.774 9.70755 125.026 9.72305C125.277 9.73855 125.522 9.80675 125.745 9.92322C125.968 10.0397 126.164 10.2018 126.32 10.3991C127.229 11.6122 126.364 14.2076 125.581 15.3095C125.513 15.4062 124.281 16.7595 124.266 16.7595V16.7305C124.131 17.1413 123.986 17.5811 123.812 18.0548C123.493 18.9344 123.121 19.9203 122.642 20.9546C122.137 22.0864 121.567 23.1885 120.936 24.2557C120.233 25.4527 119.424 26.5849 118.52 27.6389L118.486 27.6775C118.863 27.4455 119.936 26.8269 120.028 26.7882C121.275 26.2566 123.991 25.9569 124.987 27.0976C125.147 27.2917 125.264 27.5173 125.332 27.7599C125.399 28.0025 125.414 28.2565 125.377 28.5054C125.34 28.7543 125.25 28.9926 125.115 29.2047C124.979 29.4168 124.8 29.598 124.59 29.7364C123.715 30.3551 122.406 30.2198 121.439 29.9298C120.352 29.5818 118.539 27.9289 118.375 27.7935C117.431 28.8467 116.417 29.8349 115.34 30.7514C114.716 31.2879 114.068 31.8099 113.406 32.327C113.74 32.1337 114.039 31.9645 114.083 31.9452C115.325 31.4135 118.041 31.1139 119.037 32.2545C119.198 32.4483 119.316 32.674 119.384 32.9166C119.452 33.1593 119.467 33.4136 119.43 33.6627C119.392 33.9119 119.303 34.1503 119.167 34.3624C119.031 34.5745 118.851 34.7554 118.641 34.8934C117.771 35.512 116.456 35.3767 115.494 35.0867C114.532 34.7967 112.923 33.3951 112.507 33.023C112.251 33.2163 112.024 33.4145 111.749 33.6126C110.535 34.5406 109.332 35.4637 108.148 36.411C107.737 36.7397 107.346 37.0828 106.949 37.426L107.539 37.0973C108.781 36.5657 111.497 36.2612 112.493 37.4018C112.653 37.5963 112.771 37.8224 112.838 38.0653C112.906 38.3083 112.921 38.5626 112.884 38.8119C112.846 39.0612 112.757 39.2999 112.621 39.5124C112.486 39.7249 112.307 39.9066 112.097 40.0455C111.227 40.6642 109.912 40.5288 108.95 40.234C107.988 39.9392 106.534 38.6777 106.05 38.2379C105.659 38.6004 105.263 38.9629 104.9 39.3302C104.654 39.5864 104.417 39.8135 104.175 40.089L103.479 40.872C103.059 41.3891 102.619 41.9159 102.218 42.4283C101.937 42.7811 101.676 43.1242 101.415 43.4722C101.816 43.1339 102.628 42.5056 102.701 42.4476C103.846 41.7323 106.49 40.9977 107.645 42.0029C107.832 42.1711 107.982 42.3768 108.085 42.6066C108.187 42.8364 108.24 43.0853 108.24 43.3369C108.24 43.5885 108.187 43.8373 108.085 44.0672C107.982 44.297 107.832 44.5027 107.645 44.6708C106.872 45.4151 105.557 45.4925 104.562 45.3378C103.46 45.1638 101.469 43.8879 101.222 43.7042C100.787 44.2794 100.371 44.8352 99.9847 45.3716C98.646 47.2227 97.602 48.8177 96.8867 49.9389L96.8142 50.0549L95.8862 49.6055L96.0312 49.3831C96.7804 48.2619 97.8727 46.6766 99.2646 44.84C99.7044 44.2552 100.183 43.6414 100.681 43.0179C100.163 42.4522 99.6789 41.8567 99.2308 41.2345C98.1626 41.655 95.9491 41.6695 95.6591 41.6695C95.6156 42.3848 95.5769 43.0856 95.5479 43.7429C95.4513 46.0241 95.4609 47.9284 95.4851 49.2623V49.417L94.4653 48.9337C94.4653 47.6094 94.5185 45.8211 94.6538 43.7042C94.6973 42.9792 94.7601 42.2011 94.8326 41.4036C94.5475 41.3311 92.2421 40.7415 91.3721 40.0455C90.5843 39.4124 89.753 38.3926 89.782 37.3196C89.7801 37.0679 89.8311 36.8186 89.9319 36.588C90.0327 36.3573 90.1809 36.1504 90.3669 35.9808C90.5529 35.8112 90.7726 35.6827 91.0115 35.6036C91.2505 35.5245 91.5034 35.4966 91.7539 35.5217C93.257 35.715 94.5185 38.1413 94.7649 39.4704C94.7649 39.5525 94.8423 40.437 94.8713 40.9687C94.9051 40.6448 94.9293 40.3258 94.9679 40.002C95.0308 39.3399 95.1178 38.6826 95.2096 37.9721C95.2628 37.629 95.3208 37.2858 95.3739 36.9378C95.4271 36.5898 95.5189 36.2322 95.5914 35.8745C95.7751 35.0529 95.9974 34.2264 96.2439 33.4C95.6639 33.342 93.6098 33.1003 92.7302 32.5928C91.8506 32.0853 90.8743 31.2057 90.7438 30.1424C90.7034 29.8937 90.7158 29.6393 90.7804 29.3957C90.8449 29.1521 90.96 28.9249 91.1183 28.7288C91.2765 28.5327 91.4743 28.3722 91.6987 28.2577C91.9232 28.1431 92.1692 28.0772 92.4209 28.0642C93.9337 28.0303 95.5479 30.2343 95.9926 31.515C96.0216 31.5924 96.2391 32.5445 96.3502 33.0713C96.5 32.588 96.645 32.0805 96.8335 31.5827C97.3168 30.1328 97.863 28.7167 98.3946 27.2812C98.559 26.8414 98.7136 26.4016 98.8779 25.9618C98.6701 25.9618 96.2197 25.7056 95.2338 25.1401C94.359 24.6568 93.3827 23.753 93.2473 22.6897C93.2077 22.4411 93.2207 22.187 93.2856 21.9437C93.3504 21.7005 93.4656 21.4735 93.6237 21.2776C93.7818 21.0817 93.9793 20.9212 94.2033 20.8064C94.4274 20.6917 94.6731 20.6253 94.9244 20.6115C96.442 20.5777 98.0563 22.7816 98.501 24.0623C98.5348 24.159 98.8441 25.5123 98.9069 25.8796C99.2549 24.913 99.5981 23.9463 99.8736 22.9797C100.282 21.6747 100.605 20.3444 100.84 18.9972C100.744 18.9972 98.1868 18.7556 97.1767 18.1756C96.2971 17.6923 95.3208 16.7885 95.1903 15.7252C95.1498 15.4767 95.1623 15.2225 95.2269 14.9792C95.2914 14.7359 95.4066 14.509 95.5649 14.3133C95.7232 14.1175 95.9211 13.9574 96.1455 13.8435C96.37 13.7295 96.6159 13.6641 96.8674 13.6518C98.3801 13.6131 99.9944 15.817 100.439 17.0978C100.468 17.18 100.71 18.2239 100.811 18.7266H100.893C101.093 17.3652 101.171 15.9887 101.125 14.6136C101.125 13.8548 101.053 13.1346 100.98 12.4338C100.497 12.4338 98.3028 12.4338 97.3362 12.0133C96.3696 11.5929 95.3401 10.8389 95.0888 9.79976C95.0217 9.55634 95.0069 9.30151 95.0451 9.05195C95.0834 8.80238 95.1739 8.56371 95.3108 8.35155C95.4476 8.13939 95.6278 7.95854 95.8394 7.82081C96.051 7.68309 96.2893 7.5916 96.5387 7.55235C98.0418 7.34452 99.8881 9.36478 100.473 10.5827C100.502 10.6504 100.753 11.3609 100.922 11.8828C100.889 11.5639 100.855 11.2352 100.811 10.9162C100.661 9.78042 100.449 8.75097 100.255 7.8375C100.139 7.32036 100.028 6.87088 99.9171 6.4214C99.4338 6.17974 97.5392 5.18411 96.8915 4.38181C96.2439 3.57951 95.6639 2.41473 95.9249 1.38043C95.9827 1.13619 96.0911 0.906788 96.2431 0.707077C96.3951 0.507365 96.5873 0.34179 96.8074 0.221064C97.0274 0.100338 97.2703 0.0271506 97.5204 0.00623641C97.7706 -0.0146778 98.0223 0.0171474 98.2593 0.0996528Z" fill="white"/>
<path opacity="0.5" d="M125.654 23.4389C124.47 23.3906 122.102 22.1775 122.102 22.1775C122.102 22.1775 123.373 20.858 123.465 20.7855C124.523 19.9446 127.065 18.9344 128.327 19.7754C128.533 19.9199 128.706 20.1063 128.835 20.3223C128.965 20.5384 129.047 20.7794 129.076 21.0294C129.106 21.2794 129.083 21.5329 129.008 21.7732C128.932 22.0135 128.807 22.2353 128.641 22.424C127.964 23.2504 126.664 23.4824 125.654 23.4389Z" fill="white"/>
</g>
<path d="M111.825 53.0951C111.825 53.0951 104.638 35.7731 100.617 36.5271C96.5961 37.2811 107.514 64.1436 107.514 64.1436C107.514 64.1436 94.8707 40.2921 86.2484 40.2921C77.6261 40.2921 89.4093 66.652 100.356 75.4387C100.356 75.4387 83.1117 56.8601 73.0539 60.8764C62.9962 64.8928 93.1453 83.713 93.1453 83.713C93.1453 83.713 75.6155 78.1984 77.6406 82.4709C79.6657 86.7434 85.1126 87.4877 85.1126 87.4877L89.7234 88.493H114.856L118.722 86.9899C118.722 86.9899 134.817 78.9524 130.505 75.69C126.194 72.4276 116.712 79.455 116.712 79.455C116.712 79.455 133.091 61.3791 129.93 54.603C126.769 47.827 112.686 66.9034 112.686 66.9034C112.686 66.9034 124.184 42.5492 121.869 38.2815C119.554 34.0139 111.825 53.0951 111.825 53.0951Z" fill="#253F66"/>
<path opacity="0.4" d="M111.825 53.0951C111.825 53.0951 104.638 35.7731 100.617 36.5271C96.5961 37.2811 107.514 64.1436 107.514 64.1436C107.514 64.1436 94.8707 40.2921 86.2484 40.2921C77.6261 40.2921 89.4093 66.652 100.356 75.4387C100.356 75.4387 83.1117 56.8601 73.0539 60.8764C62.9962 64.8928 93.1453 83.713 93.1453 83.713C93.1453 83.713 75.6155 78.1984 77.6406 82.4709C79.6657 86.7434 85.1126 87.4877 85.1126 87.4877L92.6233 88.493H112.922L118.722 86.9899C118.722 86.9899 134.817 78.9524 130.505 75.69C126.194 72.4276 116.712 79.455 116.712 79.455C116.712 79.455 133.091 61.3791 129.93 54.603C126.769 47.827 112.686 66.9034 112.686 66.9034C112.686 66.9034 124.184 42.5492 121.869 38.2815C119.554 34.0139 111.825 53.0951 111.825 53.0951Z" fill="white"/>
<path d="M114.126 54.0085C107.805 72.6886 107.805 85.9072 107.805 85.9072C107.805 85.9072 115.277 86.1972 123.034 80.4458" stroke="#263238" stroke-linecap="round" stroke-linejoin="round"/>
<path d="M110.989 64.0663C109.684 58.4822 107.954 53.0063 105.812 47.6868" stroke="#263238" stroke-linecap="round" stroke-linejoin="round"/>
<path d="M92.2852 53.1433L108.375 76.9997C108.375 76.9997 119.298 67.8167 123.034 62.6308" stroke="#263238" stroke-linecap="round" stroke-linejoin="round"/>
<path d="M108.09 82.7463C108.09 82.7463 91.1352 74.6991 84.2383 70.1028" stroke="#263238" stroke-linecap="round" stroke-linejoin="round"/>
<path d="M119.481 14.4204H115.986V160.038H119.481V14.4204Z" fill="#C2C2C2" stroke="#ABABAB" stroke-linecap="round" stroke-linejoin="round"/>
<path d="M56.6213 14.4204H53.127V160.038H56.6213V14.4204Z" fill="#C2C2C2" stroke="#ABABAB" stroke-linecap="round" stroke-linejoin="round"/>
<path d="M88.051 14.4204H84.5566V160.038H88.051V14.4204Z" fill="#C2C2C2" stroke="#ABABAB" stroke-linecap="round" stroke-linejoin="round"/>
<path d="M150.905 14.4204H147.41V160.038H150.905V14.4204Z" fill="#C2C2C2" stroke="#ABABAB" stroke-linecap="round" stroke-linejoin="round"/>
<path d="M149.857 18.9587H52V25.5946H149.857V18.9587Z" fill="#C2C2C2" stroke="#ABABAB" stroke-linecap="round" stroke-linejoin="round"/>
<path d="M149.857 18.9587H86.8809V25.5946H149.857V18.9587Z" fill="#A6A6A6" stroke="#ABABAB" stroke-linecap="round" stroke-linejoin="round"/>
<path d="M149.857 85.7769H52V92.4127H149.857V85.7769Z" fill="#C2C2C2" stroke="#ABABAB" stroke-linecap="round" stroke-linejoin="round"/>
<path d="M149.857 85.7769H86.8809V92.4127H149.857V85.7769Z" fill="#A6A6A6" stroke="#ABABAB" stroke-linecap="round" stroke-linejoin="round"/>
<path d="M149.857 152.59H52V159.226H149.857V152.59Z" fill="#C2C2C2" stroke="#ABABAB" stroke-linecap="round" stroke-linejoin="round"/>
<path d="M149.857 152.59H86.8809V159.226H149.857V152.59Z" fill="#A6A6A6" stroke="#ABABAB" stroke-linecap="round" stroke-linejoin="round"/>
<path d="M58.2119 116.965H7V159.984H58.2119V116.965Z" fill="#253F66"/>
<path opacity="0.6" d="M58.2119 116.965H7V159.984H58.2119V116.965Z" fill="white" stroke="#696969" stroke-linecap="round" stroke-linejoin="round"/>
<path d="M58.2119 116.965H7V159.984H58.2119V116.965Z" stroke="#696969" stroke-linecap="round" stroke-linejoin="round"/>
<path d="M58.2128 116.965H41.1953V159.984H58.2128V116.965Z" fill="#253F66"/>
<path opacity="0.39" d="M58.2128 116.965H41.1953V159.984H58.2128V116.965Z" fill="white" stroke="#696969" stroke-linecap="round" stroke-linejoin="round"/>
<path d="M58.2128 116.965H41.1953V159.984H58.2128V116.965Z" stroke="#696969" stroke-linecap="round" stroke-linejoin="round"/>
<path d="M49.8789 117.081V160.038" stroke="#696969" stroke-linecap="round" stroke-linejoin="round"/>
<path d="M60.7978 74.0127H9.58594V117.032H60.7978V74.0127Z" fill="#253F66"/>
<path opacity="0.6" d="M60.7978 74.0127H9.58594V117.032H60.7978V74.0127Z" fill="white" stroke="#696969" stroke-linecap="round" stroke-linejoin="round"/>
<path d="M60.7978 74.0127H9.58594V117.032H60.7978V74.0127Z" stroke="#696969" stroke-linecap="round" stroke-linejoin="round"/>
<path d="M60.7987 74.0127H43.7812V117.032H60.7987V74.0127Z" fill="#253F66"/>
<path opacity="0.39" d="M60.7987 74.0127H43.7812V117.032H60.7987V74.0127Z" fill="white" stroke="#696969" stroke-linecap="round" stroke-linejoin="round"/>
<path d="M60.7987 74.0127H43.7812V117.032H60.7987V74.0127Z" stroke="#696969" stroke-linecap="round" stroke-linejoin="round"/>
<path d="M52.4648 74.1287V117.086" stroke="#696969" stroke-linecap="round" stroke-linejoin="round"/>
<path d="M194.065 116.965H142.854V159.984H194.065V116.965Z" fill="#253F66"/>
<path opacity="0.6" d="M194.065 116.965H142.854V159.984H194.065V116.965Z" fill="white" stroke="#919191" stroke-linecap="round" stroke-linejoin="round"/>
<path d="M194.065 116.965H142.854V159.984H194.065V116.965Z" stroke="#919191" stroke-linecap="round" stroke-linejoin="round"/>
<path d="M194.066 116.965H177.049V159.984H194.066V116.965Z" fill="#253F66"/>
<path opacity="0.39" d="M194.066 116.965H177.049V159.984H194.066V116.965Z" fill="white" stroke="#919191" stroke-linecap="round" stroke-linejoin="round"/>
<path d="M194.066 116.965H177.049V159.984H194.066V116.965Z" stroke="#919191" stroke-linecap="round" stroke-linejoin="round"/>
<path d="M185.734 117.081V160.038" stroke="#919191" stroke-linecap="round" stroke-linejoin="round"/>
<path d="M194.065 73.9014H142.854V116.921H194.065V73.9014Z" fill="#253F66"/>
<path opacity="0.6" d="M194.065 73.9014H142.854V116.921H194.065V73.9014Z" fill="white" stroke="#919191" stroke-linecap="round" stroke-linejoin="round"/>
<path d="M194.065 73.9014H142.854V116.921H194.065V73.9014Z" stroke="#919191" stroke-linecap="round" stroke-linejoin="round"/>
<path d="M194.066 73.9014H177.049V116.921H194.066V73.9014Z" fill="#253F66"/>
<path opacity="0.39" d="M194.066 73.9014H177.049V116.921H194.066V73.9014Z" fill="white" stroke="#919191" stroke-linecap="round" stroke-linejoin="round"/>
<path d="M194.066 73.9014H177.049V116.921H194.066V73.9014Z" stroke="#919191" stroke-linecap="round" stroke-linejoin="round"/>
<path d="M185.734 74.0176V116.974" stroke="#919191" stroke-linecap="round" stroke-linejoin="round"/>
<path d="M189.568 38.2812H147.205V73.8676H189.568V38.2812Z" fill="#253F66"/>
<path opacity="0.6" d="M189.568 38.2812H147.205V73.8676H189.568V38.2812Z" fill="white" stroke="#919191" stroke-linecap="round" stroke-linejoin="round"/>
<path d="M189.568 38.2812H147.205V73.8676H189.568V38.2812Z" stroke="#919191" stroke-linecap="round" stroke-linejoin="round"/>
<path d="M189.566 38.2812H175.492V73.8676H189.566V38.2812Z" fill="#253F66"/>
<path opacity="0.39" d="M189.566 38.2812H175.492V73.8676H189.566V38.2812Z" fill="white" stroke="#919191" stroke-linecap="round" stroke-linejoin="round"/>
<path d="M189.566 38.2812H175.492V73.8676H189.566V38.2812Z" stroke="#919191" stroke-linecap="round" stroke-linejoin="round"/>
<path d="M182.676 38.3779V73.9111" stroke="#919191" stroke-linecap="round" stroke-linejoin="round"/>
<path d="M136.933 143.813H130.297V147.965H136.933V143.813Z" fill="white" stroke="#263238" stroke-linecap="round" stroke-linejoin="round"/>
<path d="M74.4881 160.038C76.7036 160.038 78.4996 158.242 78.4996 156.026C78.4996 153.811 76.7036 152.015 74.4881 152.015C72.2726 152.015 70.4766 153.811 70.4766 156.026C70.4766 158.242 72.2726 160.038 74.4881 160.038Z" fill="#263238" stroke="#263238" stroke-linecap="round" stroke-linejoin="round"/>
<path d="M140.499 89.6287H138.131V156.118H140.499V89.6287Z" fill="#263238" stroke="#263238" stroke-linecap="round" stroke-linejoin="round"/>
<path d="M139.237 112.886L133.636 108.43C131.253 106.531 129.466 103.988 128.487 101.103C127.507 98.2184 127.377 95.113 128.112 92.1564C128.328 91.2933 128.825 90.5269 129.525 89.9781C130.225 89.4293 131.088 89.1295 131.978 89.126H146.477C147.368 89.1278 148.231 89.427 148.932 89.976C149.633 90.5251 150.13 91.2925 150.344 92.1564C151.079 95.1126 150.95 98.2178 149.972 101.103C148.993 103.988 147.207 106.531 144.825 108.43L139.237 112.886ZM131.988 91.3927C131.601 91.3913 131.224 91.5202 130.919 91.7587C130.614 91.9971 130.398 92.3313 130.306 92.7073C129.674 95.2412 129.785 97.9033 130.623 100.376C131.462 102.849 132.995 105.029 135.037 106.656L139.228 109.991L143.423 106.656C145.467 105.029 147 102.85 147.841 100.377C148.681 97.9045 148.793 95.2422 148.164 92.7073C148.071 92.3317 147.855 91.998 147.55 91.7597C147.245 91.5214 146.869 91.3922 146.482 91.3927H131.988Z" fill="#263238"/>
<path d="M125.333 145.891H52V154.426H125.333V145.891Z" fill="white"/>
<path opacity="0.28" d="M125.333 145.891H52V154.426H125.333V145.891Z" fill="black" stroke="#263238" stroke-linecap="round" stroke-linejoin="round"/>
<path d="M125.333 145.891H52V154.426H125.333V145.891Z" stroke="#263238" stroke-linecap="round" stroke-linejoin="round"/>
<path d="M60.2163 145.891H52V154.426H60.2163V145.891Z" stroke="#263238" stroke-linecap="round" stroke-linejoin="round"/>
<path d="M125.328 145.891H117.111V154.426H125.328V145.891Z" stroke="#263238" stroke-linecap="round" stroke-linejoin="round"/>
<path d="M92.773 145.891H84.5566V154.426H92.773V145.891Z" stroke="#263238" stroke-linecap="round" stroke-linejoin="round"/>
<path d="M125.334 154.426H130.389L136.711 130.401H131.656L125.334 154.426Z" fill="white" stroke="#263238" stroke-linecap="round" stroke-linejoin="round"/>
<path d="M142.636 140.517H136V151.266H142.636V140.517Z" fill="white" stroke="#263238" stroke-linecap="round" stroke-linejoin="round"/>
<path d="M137.691 160.038C137.315 160.032 136.956 159.879 136.69 159.613C136.424 159.347 136.272 158.988 136.266 158.612V153.262C136.272 152.886 136.424 152.526 136.69 152.26C136.956 151.994 137.315 151.842 137.691 151.836C138.068 151.842 138.427 151.994 138.693 152.26C138.959 152.526 139.111 152.886 139.117 153.262V158.626C139.107 159 138.953 159.356 138.688 159.618C138.422 159.881 138.065 160.032 137.691 160.038Z" fill="#263238"/>
<path d="M141.08 160.038C140.704 160.032 140.345 159.879 140.079 159.613C139.813 159.347 139.661 158.988 139.654 158.612V153.262C139.661 152.886 139.813 152.526 140.079 152.26C140.345 151.994 140.704 151.842 141.08 151.836C141.46 151.836 141.826 151.985 142.097 152.252C142.368 152.519 142.524 152.881 142.53 153.262V158.626C142.52 159.004 142.363 159.363 142.092 159.627C141.821 159.89 141.458 160.038 141.08 160.038Z" fill="#263238"/>
<path d="M1 160.038H201" stroke="#263238" stroke-linecap="round" stroke-linejoin="round"/>
<path d="M74.9146 174.001C94.1974 174.001 109.829 172.101 109.829 169.757C109.829 167.414 94.1974 165.514 74.9146 165.514C55.6318 165.514 40 167.414 40 169.757C40 172.101 55.6318 174.001 74.9146 174.001Z" fill="#253F66"/>
<path opacity="0.5" d="M74.9146 174.001C94.1974 174.001 109.829 172.101 109.829 169.757C109.829 167.414 94.1974 165.514 74.9146 165.514C55.6318 165.514 40 167.414 40 169.757C40 172.101 55.6318 174.001 74.9146 174.001Z" fill="white"/>
<path d="M147.166 169.743C147.166 170.912 139.37 171.86 129.766 171.86C120.163 171.86 112.367 170.893 112.367 169.743C112.367 168.592 120.158 167.631 129.766 167.631C139.375 167.631 147.166 168.592 147.166 169.743Z" fill="#253F66"/>
<path opacity="0.5" d="M147.166 169.743C147.166 170.912 139.37 171.86 129.766 171.86C120.163 171.86 112.367 170.893 112.367 169.743C112.367 168.592 120.158 167.631 129.766 167.631C139.375 167.631 147.166 168.592 147.166 169.743Z" fill="white"/>
<path d="M81.8792 29.9637C81.8792 29.9637 79.1775 27.8419 76.0794 28.9004C72.9814 29.9588 70.6325 35.1206 69.7963 39.3158C68.9602 43.5109 65.7462 46.6911 66.5195 51.6113C67.2928 56.5314 72.8847 57.2999 79.6366 58.0248C86.3885 58.7498 90.052 57.9282 93.2322 53.4914C96.4124 49.0545 95.064 43.6559 93.1839 38.8808C91.3038 34.1057 88.1719 29.6737 85.5669 28.852C82.9618 28.0304 81.8792 29.9637 81.8792 29.9637Z" fill="#263238" stroke="#263238" stroke-linecap="round" stroke-linejoin="round"/>
<path d="M70.7148 55.1975C71.1707 55.4025 71.6449 55.5643 72.131 55.6808" stroke="white" stroke-linecap="round" stroke-linejoin="round"/>
<path d="M81.2024 33.3999C80.1012 35.8602 78.7055 38.1777 77.0459 40.3016C74.2814 43.854 68.1674 47.2082 67.776 50.9345C67.713 51.4334 67.7568 51.94 67.9042 52.4207C68.0517 52.9015 68.2996 53.3454 68.6314 53.7232" stroke="white" stroke-linecap="round" stroke-linejoin="round"/>
<path d="M92.4199 51.2197C92.2201 51.6875 91.9636 52.129 91.6562 52.5343" stroke="white" stroke-linecap="round" stroke-linejoin="round"/>
<path d="M90.0957 41.8821C90.0957 41.8821 93.2034 45.4683 92.9038 49.2961" stroke="white" stroke-linecap="round" stroke-linejoin="round"/>
<path d="M80.6125 31.4232C79.4013 31.2999 78.1781 31.4686 77.0455 31.9151C75.9128 32.3616 74.9036 33.073 74.1023 33.9896C73.9911 34.1153 73.8896 34.2409 73.793 34.3666" stroke="white" stroke-linecap="round" stroke-linejoin="round"/>
<path d="M62.7839 122.523L62.1797 131.822C62.1797 131.822 59.6085 144.296 58.7965 149.439C57.9846 154.581 56.4959 162.401 56.2253 162.401C55.9546 162.401 51.5178 165.084 50.0969 167.273C48.6759 169.462 50.4787 170.39 52.4506 169.69C54.4225 168.989 57.1001 167.007 57.9749 164.653C58.8497 162.3 59.2847 161.425 59.3427 161.043C59.4007 160.661 68.7528 135.553 69.6807 132.871C70.6087 130.188 72.5806 122.31 72.5806 122.31L77.1769 106.719C77.1769 106.719 82.0971 122.75 82.1551 123.461C82.2131 124.171 87.2395 165.146 87.4715 166.679C87.7035 168.211 87.6358 169.303 88.5638 169.632C89.4918 169.96 91.6812 169.96 92.8315 169.96C93.9818 169.96 97.9739 170.564 99.941 170.071C101.908 169.578 102.13 169.25 100.763 168.264C99.3949 167.278 91.7972 166.65 91.0964 163.779C91.0384 163.561 90.9852 121.382 90.9852 121.382C90.9852 121.382 90.3279 107.434 89.2356 103.5H63.9583L62.7839 122.523Z" fill="white" stroke="#263238" stroke-linecap="round" stroke-linejoin="round"/>
<path d="M52.4457 169.68C54.4128 168.965 57.0952 166.998 57.97 164.644L58.1537 164.161C57.0372 165.349 55.2538 167.002 55.2538 167.002C55.1445 166.442 54.9007 165.916 54.5433 165.47C54.3874 165.298 54.1876 165.172 53.9655 165.105C53.7433 165.037 53.507 165.032 53.2818 165.088L55.2151 162.962C53.7652 163.861 51.1553 165.697 50.1306 167.278C48.6662 169.458 50.4641 170.39 52.4457 169.68Z" fill="#263238" stroke="#263238" stroke-linecap="round" stroke-linejoin="round"/>
<path d="M100.729 168.254C99.7909 167.582 95.9389 167.075 93.3677 165.9C93.2616 165.991 93.1787 166.105 93.126 166.234C92.9628 166.697 92.8352 167.172 92.7442 167.655L87.4277 166.519V166.669C87.6452 168.201 87.5921 169.293 88.52 169.622C89.448 169.951 91.6374 169.951 92.7877 169.951C93.938 169.951 97.9301 170.555 99.8972 170.062C101.864 169.569 102.116 169.259 100.729 168.254Z" fill="#263238" stroke="#263238" stroke-linecap="round" stroke-linejoin="round"/>
<path d="M70.1486 80.813C70.1486 80.813 67.6402 81.9681 64.605 87.4199C61.2846 93.3695 61.8549 96.6753 61.8066 103.853C61.7583 111.03 61.6133 122.943 61.6133 122.943C61.6133 122.943 70.7962 125.403 77.3838 125.017C83.9714 124.63 92.3279 123.137 92.3279 123.137C92.3279 123.137 90.5444 98.8358 88.8577 91.847C87.1709 84.8583 86.1559 81.6975 86.1559 81.6975C82.8959 82.1499 79.5925 82.1986 76.3205 81.8424C70.7286 81.2963 70.1486 80.813 70.1486 80.813Z" fill="#263238" stroke="#263238" stroke-linecap="round" stroke-linejoin="round"/>
<path d="M80.7148 102.306C80.9662 103.132 81.1982 103.969 81.4011 104.805" stroke="white" stroke-linecap="round" stroke-linejoin="round"/>
<path d="M74.8906 88.6282C76.8376 92.2207 78.5082 95.9562 79.8881 99.8024" stroke="white" stroke-linecap="round" stroke-linejoin="round"/>
<path d="M131.718 76.1925C131.428 75.9992 126.677 75.2549 126.677 75.2549L125.749 74.8731C125.749 74.8731 131.501 75.3322 131.549 75.0905C131.597 74.8489 131.791 74.5589 131.404 74.5106C131.017 74.4622 123.618 72.9591 123.618 72.9591C123.618 72.9591 125.498 71.1805 125.74 70.7939C125.981 70.4072 126.315 69.6339 125.928 69.6339C125.541 69.6339 125.445 69.8756 124.918 70.2139C124.391 70.5522 122.313 71.3739 121.733 71.8523C121.153 72.3308 119.423 73.5874 119.423 73.5874L99.3266 70.8229C99.3266 70.8229 92.2702 62.1232 90.7381 60.2673C89.673 59.0288 88.4606 57.9251 87.1277 56.9808C85.6488 56.3283 85.6778 57.4206 85.6778 57.4206L88.7661 71.1467C88.7661 71.1467 96.7553 75.9073 97.2483 75.9073C97.7413 75.9073 119.326 76.6226 119.326 76.6226C119.326 76.6226 120.776 77.2993 121.685 77.8744C122.593 78.4496 128.388 80.291 128.388 80.291C128.388 80.291 128.775 80.0977 128.34 79.7594C127.905 79.421 125.111 78.0726 125.111 78.0726L130.911 79.3292C130.911 79.3292 131.249 79.0875 131.104 78.8459C130.959 78.6042 125.788 76.6275 125.788 76.6275L131.588 76.9175C131.588 76.9175 132.003 76.3858 131.718 76.1925Z" fill="white" stroke="#263238" stroke-linecap="round" stroke-linejoin="round"/>
<path d="M98.1134 69.3294C96.0304 66.7631 91.869 61.6399 90.7381 60.2673C89.673 59.0288 88.4606 57.9251 87.1277 56.9808C85.6488 56.3283 85.6778 57.4206 85.6778 57.4206L88.7661 71.1467C88.7661 71.1467 92.3717 73.2926 94.8849 74.7039L98.1134 69.3294Z" fill="white" stroke="#263238" stroke-linecap="round" stroke-linejoin="round"/>
<path d="M76.7563 55.8063C76.7563 55.8063 72.5612 55.9996 69.9899 58.8463C67.4187 61.693 67.7232 67.9568 68.7865 71.7169C69.8498 75.4771 71.2031 77.5505 70.9082 78.8555C70.6134 80.1604 69.5598 80.5906 70.1349 81.794C70.7101 82.9975 74.0401 84.3024 79.922 84.1091C85.804 83.9158 86.9156 82.6592 86.9639 81.5572C87.0123 80.4552 86.5773 79.5321 86.7223 78.8555C86.8673 78.1788 91.1108 74.4187 91.1108 70.2718C91.1108 66.125 89.279 64.6799 88.844 61.6882C88.409 58.6965 88.554 58.2663 86.7706 56.9614C84.9872 55.6564 79.1197 54.9846 76.7563 55.8063Z" fill="white" stroke="#263238" stroke-linecap="round" stroke-linejoin="round"/>
<path d="M74.8519 70.1802C73.4498 71.3535 71.8935 72.3292 70.2266 73.0801" stroke="#263238" stroke-linecap="round" stroke-linejoin="round"/>
<path d="M75.3167 70.6633C75.3167 70.6633 74.2775 74.0175 71.7305 75.8686" stroke="#263238" stroke-linecap="round" stroke-linejoin="round"/>
<path d="M85.7263 58.8416L86.2096 63.4717L84.1797 61.1083L85.7263 58.8416Z" fill="white" stroke="#263238" stroke-linecap="round" stroke-linejoin="round"/>
<path d="M83.0254 63.8585L85.7271 58.8417L83.267 56.1931L83.0254 63.8585Z" fill="white" stroke="#263238" stroke-linecap="round" stroke-linejoin="round"/>
<path d="M77.8184 47.6094C78.2396 49.281 78.4491 50.999 78.4418 52.7228C78.4277 53.8391 78.3145 54.9518 78.1035 56.048L83.0236 63.8584L84.4204 56.6087L85.3387 51.5919C85.3387 51.5919 79.7468 51.2729 77.8184 47.6094Z" fill="white" stroke="#263238" stroke-linecap="round" stroke-linejoin="round"/>
<path d="M82.7352 59.6631L83.0252 63.8582L81.5801 61.5915L82.7352 59.6631Z" fill="white" stroke="#263238" stroke-linecap="round" stroke-linejoin="round"/>
<path d="M76.4668 55.8548L80.9519 63.9068L82.7354 59.6633L77.9651 53.1047L76.4668 55.8548Z" fill="white" stroke="#263238" stroke-linecap="round" stroke-linejoin="round"/>
<path d="M155.044 59.6101H114.344V93.0071H155.044V59.6101Z" fill="#253F66"/>
<path opacity="0.2" d="M155.044 59.6101H114.344V93.0071H155.044V59.6101Z" fill="black"/>
<path d="M155.044 59.6101H114.344V93.0071H155.044V59.6101Z" stroke="#263238" stroke-linecap="round" stroke-linejoin="round"/>
<path d="M146.426 59.6101H105.727V93.0071H146.426V59.6101Z" fill="#253F66" stroke="#263238" stroke-linecap="round" stroke-linejoin="round"/>
<path d="M161.746 104.249C160.441 102.18 155.042 93.0071 155.042 93.0071H146.43L150.862 104.249H161.746Z" fill="#253F66"/>
<path opacity="0.2" d="M161.746 104.249C160.441 102.18 155.042 93.0071 155.042 93.0071H146.43L150.862 104.249H161.746Z" fill="black"/>
<path d="M161.746 104.249C160.441 102.18 155.042 93.0071 155.042 93.0071H146.43L150.862 104.249H161.746Z" stroke="#263238" stroke-linecap="round" stroke-linejoin="round"/>
<path d="M98.998 104.249C100.303 102.18 105.697 93.0071 105.697 93.0071H114.314L109.882 104.249H98.998Z" fill="#253F66" stroke="#263238" stroke-linecap="round" stroke-linejoin="round"/>
<path d="M105.697 93.0071L101.951 104.249H144.459L146.431 93.0071H105.697Z" fill="#253F66" stroke="#263238" stroke-linecap="round" stroke-linejoin="round"/>
<path d="M160.283 71.6929V82.8767" stroke="#263238" stroke-linecap="round" stroke-linejoin="round"/>
<path d="M162.398 76.5308V85.5977" stroke="#263238" stroke-linecap="round" stroke-linejoin="round"/>
<path d="M101.352 82.8767V89.8268" stroke="#263238" stroke-linecap="round" stroke-linejoin="round"/>
<path d="M99.5391 86.8062V92.2434" stroke="#263238" stroke-linecap="round" stroke-linejoin="round"/>
<path d="M69.7617 67.8119C71.204 69.4455 72.878 70.8589 74.7302 72.007C77.6301 73.7421 88.263 79.769 89.0991 80.1074C89.9352 80.4457 115.329 76.2989 115.329 76.2989C115.329 76.2989 116.778 76.9755 117.692 77.5506C118.605 78.1258 124.395 79.9672 124.395 79.9672C124.395 79.9672 124.782 79.7739 124.347 79.4404C123.912 79.1069 121.119 77.7488 121.119 77.7488L126.918 79.0054C126.918 79.0054 127.257 78.7637 127.112 78.5221C126.967 78.2804 121.795 76.3037 121.795 76.3037L127.595 76.5937C127.595 76.5937 128.03 76.062 127.74 75.8687C127.45 75.6754 121.51 74.3221 121.51 74.3221C121.51 74.3221 127.827 73.7905 127.875 73.5488C127.924 73.3071 128.117 73.022 127.73 72.9736C127.344 72.9253 119.437 72.152 119.437 72.152C119.437 72.152 121.51 70.8519 121.752 70.4653C121.993 70.0786 122.332 69.3053 121.945 69.3053C121.558 69.3053 121.462 69.547 120.935 69.8853C120.408 70.2236 118.33 71.0452 117.75 71.5237C117.17 72.0022 115.435 73.2636 115.435 73.2636L92.1971 73.312L77.7702 61.9299" fill="white"/>
<path d="M69.7617 67.8119C71.204 69.4455 72.878 70.8589 74.7302 72.007C77.6301 73.7421 88.263 79.769 89.0991 80.1074C89.9352 80.4457 115.329 76.2988 115.329 76.2988C115.329 76.2988 116.778 76.9755 117.692 77.5506C118.605 78.1258 124.395 79.9672 124.395 79.9672C124.395 79.9672 124.782 79.7739 124.347 79.4404C123.912 79.1069 121.119 77.7488 121.119 77.7488L126.918 79.0054C126.918 79.0054 127.257 78.7637 127.112 78.5221C126.967 78.2804 121.795 76.3037 121.795 76.3037L127.595 76.5937C127.595 76.5937 128.03 76.062 127.74 75.8687C127.45 75.6754 121.51 74.3221 121.51 74.3221C121.51 74.3221 127.827 73.7905 127.875 73.5488C127.924 73.3071 128.117 73.022 127.73 72.9737C127.344 72.9253 119.437 72.152 119.437 72.152C119.437 72.152 121.51 70.8519 121.752 70.4653C121.993 70.0786 122.332 69.3053 121.945 69.3053C121.558 69.3053 121.462 69.547 120.935 69.8853C120.408 70.2236 118.33 71.0452 117.75 71.5237C117.17 72.0022 115.435 73.2636 115.435 73.2636L92.1971 73.312L77.7702 61.9299" stroke="#263238" stroke-linecap="round" stroke-linejoin="round"/>
<path d="M127.722 72.9738C127.34 72.9254 119.428 72.1521 119.428 72.1521C119.428 72.1521 121.502 70.852 121.743 70.4654C121.985 70.0787 122.323 69.3054 121.937 69.3054C121.55 69.3054 121.453 69.5471 120.927 69.8854C120.4 70.2237 118.322 71.0453 117.742 71.5238C117.162 72.0023 115.427 73.2638 115.427 73.2638L92.1888 73.3121L89.6127 71.2677C88.6461 72.9641 86.8385 76.1443 85.6641 78.2419C87.4717 79.2472 88.8394 79.9963 89.1149 80.1075C89.9366 80.4458 115.344 76.299 115.344 76.299C115.344 76.299 116.794 76.9756 117.708 77.5507C118.621 78.1259 124.411 79.9673 124.411 79.9673C124.411 79.9673 124.798 79.774 124.363 79.4405C123.928 79.107 121.134 77.7489 121.134 77.7489L126.934 79.0055C126.934 79.0055 127.273 78.7639 127.128 78.5222C126.983 78.2806 121.811 76.3038 121.811 76.3038L127.611 76.5938C127.611 76.5938 128.046 76.0621 127.756 75.8688C127.466 75.6755 121.511 74.3222 121.511 74.3222C121.511 74.3222 127.828 73.7906 127.877 73.5489C127.925 73.3073 128.109 73.0221 127.722 72.9738Z" fill="white" stroke="#263238" stroke-linecap="round" stroke-linejoin="round"/>
<path d="M88.8104 43.5591C88.8928 43.4591 89.0016 43.3843 89.1245 43.3431C89.2473 43.302 89.3792 43.2962 89.5052 43.3265C89.6312 43.3567 89.7461 43.4217 89.8369 43.5141C89.9277 43.6065 89.9907 43.7226 90.0187 43.8491C90.0995 44.3734 90.0725 44.9086 89.9396 45.4222C89.8066 45.9357 89.5704 46.4167 89.2454 46.836C88.7138 47.3676 88.2305 47.5126 88.2305 46.836C88.3647 45.7341 88.5583 44.6402 88.8104 43.5591Z" fill="white" stroke="#263238" stroke-linecap="round" stroke-linejoin="round"/>
<path d="M82.8754 35.1108C82.7059 37.463 81.6995 39.6765 80.0384 41.3504C78.4908 42.8722 76.7409 44.1732 74.8379 45.2169C74.8379 45.2169 75.1182 46.7297 75.6885 47.2033C76.2588 47.677 77.3898 47.5852 77.3898 47.5852C78.0473 49.3829 79.1166 51.0017 80.512 52.312C82.7787 54.3902 85.4273 54.2017 86.9401 51.0844C88.4528 47.967 89.2116 44.8399 89.0231 43.042L88.8347 41.2441C88.8347 41.2441 83.9145 38.5134 82.8754 35.1108Z" fill="white" stroke="#263238" stroke-linecap="round" stroke-linejoin="round"/>
<path d="M82.5893 44.4582C82.8295 44.4582 83.0243 44.112 83.0243 43.6849C83.0243 43.2578 82.8295 42.9116 82.5893 42.9116C82.349 42.9116 82.1543 43.2578 82.1543 43.6849C82.1543 44.112 82.349 44.4582 82.5893 44.4582Z" fill="#263238"/>
<path d="M84.9526 50.6301C85.1928 50.6301 85.3875 50.2839 85.3875 49.8568C85.3875 49.4297 85.1928 49.0835 84.9526 49.0835C84.7123 49.0835 84.5176 49.4297 84.5176 49.8568C84.5176 50.2839 84.7123 50.6301 84.9526 50.6301Z" fill="#263238"/>
<path d="M86.7846 44.4582C87.0248 44.4582 87.2196 44.112 87.2196 43.6849C87.2196 43.2578 87.0248 42.9116 86.7846 42.9116C86.5444 42.9116 86.3496 43.2578 86.3496 43.6849C86.3496 44.112 86.5444 44.4582 86.7846 44.4582Z" fill="#263238"/>
<path d="M85.9148 42.8633C85.7487 43.4423 85.6995 44.0485 85.7698 44.6467C85.9148 45.4683 86.5915 46.8651 86.0115 47.1068C85.7468 47.2275 85.4541 47.2733 85.1652 47.2392C84.8763 47.2051 84.6023 47.0925 84.373 46.9135" stroke="#263238" stroke-linecap="round" stroke-linejoin="round"/>
<path d="M81.334 42.2881C81.334 42.2881 81.566 40.8092 83.5041 40.9783" stroke="#263238" stroke-linecap="round" stroke-linejoin="round"/>
<path d="M86.5234 41.4325C86.5234 41.4325 88.331 39.9825 88.9158 42.6359" stroke="#263238" stroke-linecap="round" stroke-linejoin="round"/>
</g>
</svg>