<svg width="150" height="116" viewBox="0 0 150 116" fill="none" xmlns="http://www.w3.org/2000/svg">
<path fill-rule="evenodd" clip-rule="evenodd" d="M126.809 95.7341V100.277C126.808 101.33 127.224 102.341 127.966 103.087C128.708 103.834 129.716 104.256 130.769 104.26H5.81503C4.27419 104.256 2.79778 103.641 1.70824 102.552C0.618695 101.462 0.0045745 99.986 0 98.4451V95.7399L126.809 95.7341Z" fill="#F0D157"/>
<path fill-rule="evenodd" clip-rule="evenodd" d="M126.809 95.7342H74.6699L126.809 43.5955V95.7342Z" fill="#F0D157"/>
<path fill-rule="evenodd" clip-rule="evenodd" d="M134.768 87.0462V100.277C134.729 101.307 134.293 102.281 133.551 102.995C132.808 103.709 131.819 104.108 130.789 104.108C129.759 104.108 128.769 103.709 128.027 102.995C127.284 102.281 126.848 101.307 126.809 100.277V95.7341H13.774C12.2327 95.7311 10.7554 95.1174 9.66554 94.0276C8.57568 92.9377 7.96204 91.4604 7.95898 89.9191V41.0925C7.96355 39.5511 8.57749 38.0741 9.66687 36.9836C10.7562 35.8932 12.2327 35.2778 13.774 35.2717H24.855C27.5775 35.2717 29.2422 34.526 30.8896 32.8844L42.7451 21.0231C44.5544 19.2312 45.8203 18.5433 48.8665 18.5491H128.398C130.082 18.5567 131.695 19.2291 132.886 20.4198C134.077 21.6106 134.749 23.2235 134.757 24.9075V87.0462H134.768Z" fill="#CF9737"/>
<path fill-rule="evenodd" clip-rule="evenodd" d="M16.1497 0H116.56C117.824 0.00305273 119.035 0.506453 119.929 1.40011C120.823 2.29377 121.326 3.50497 121.329 4.76879V79.5723C121.326 80.8361 120.823 82.0473 119.929 82.941C119.035 83.8346 117.824 84.338 116.56 84.3411H16.1497C14.8869 84.3365 13.6772 83.8324 12.7848 82.9389C11.8924 82.0454 11.3898 80.8351 11.3867 79.5723V4.76879C11.3898 3.50596 11.8924 2.29565 12.7848 1.40215C13.6772 0.508655 14.8869 0.00457732 16.1497 0Z" fill="white"/>
<path fill-rule="evenodd" clip-rule="evenodd" d="M64.9133 25.7283H120.983C122.524 25.7329 124.001 26.3468 125.092 27.4362C126.182 28.5256 126.797 30.002 126.804 31.5434V100.277C126.802 101.331 127.219 102.342 127.962 103.089C128.706 103.836 129.715 104.257 130.769 104.26H5.81503C4.27419 104.256 2.79778 103.641 1.70824 102.552C0.618695 101.462 0.0045745 99.986 0 98.4451V15.3757C0 13.6894 0.669895 12.0721 1.86232 10.8797C3.05475 9.68724 4.67204 9.01733 6.35838 9.01733H40.896C43.9422 9.01733 45.2081 9.69363 47.0173 11.4913L58.8786 23.3353C60.526 24.9769 62.1908 25.7225 64.9133 25.7225V25.7283Z" fill="#FFDE59"/>
<path fill-rule="evenodd" clip-rule="evenodd" d="M126.809 95.7343V100.278C126.808 101.33 127.224 102.341 127.966 103.087C128.708 103.834 129.716 104.256 130.769 104.26H5.81503C4.27419 104.256 2.79778 103.642 1.70824 102.552C0.618695 101.463 0.0045745 99.9861 0 98.4453V95.7401H74.6995L126.838 43.6013V95.7401L126.809 95.7343Z" fill="#F0D157"/>
<path fill-rule="evenodd" clip-rule="evenodd" d="M125.097 65.3931C130.021 65.3919 134.835 66.8511 138.93 69.586C143.025 72.3209 146.217 76.2087 148.102 80.7577C149.987 85.3068 150.481 90.3127 149.521 95.1424C148.561 99.9722 146.191 104.409 142.709 107.891C139.228 111.373 134.792 113.745 129.962 114.706C125.133 115.667 120.127 115.175 115.577 113.29C111.028 111.406 107.139 108.215 104.403 104.121C101.667 100.027 100.207 95.2132 100.207 90.289C100.207 83.6872 102.829 77.3557 107.497 72.687C112.164 68.0182 118.495 65.3946 125.097 65.3931Z" fill="#FC4E2B"/>
<path fill-rule="evenodd" clip-rule="evenodd" d="M117.584 85.0232H132.613C133.262 85.0247 133.885 85.2834 134.344 85.7427C134.803 86.202 135.062 86.8245 135.063 87.4741V99.2775C135.062 99.9271 134.803 100.55 134.344 101.009C133.885 101.468 133.262 101.727 132.613 101.728H117.584C116.934 101.727 116.312 101.468 115.852 101.009C115.393 100.55 115.134 99.9271 115.133 99.2775V87.4972C115.134 86.8476 115.393 86.2251 115.852 85.7658C116.312 85.3066 116.934 85.0478 117.584 85.0463V85.0232Z" fill="white"/>
<path d="M125.097 74.7805C126.9 74.7805 128.629 75.4933 129.908 76.7636C131.187 78.0338 131.912 79.7584 131.924 81.5609V83.6591H129.612V81.5609C129.606 80.3767 129.132 79.2429 128.294 78.4061C127.456 77.5693 126.322 77.0972 125.138 77.0927C123.954 77.0957 122.819 77.5674 121.982 78.4047C121.144 79.242 120.673 80.3768 120.67 81.5609V83.6591H118.357V81.5609C118.369 79.7733 119.082 78.0617 120.342 76.7939C121.603 75.5261 123.31 74.8032 125.097 74.7805Z" fill="white"/>
</svg>