<svg width="80" height="62" viewBox="0 0 80 62" fill="none" xmlns="http://www.w3.org/2000/svg">
<path fill-rule="evenodd" clip-rule="evenodd" d="M67.6322 51.2773V53.7005C67.6314 54.2619 67.8532 54.8008 68.2491 55.199C68.6449 55.5972 69.1825 55.8221 69.744 55.8246H3.10137C2.27959 55.8221 1.49216 55.4946 0.911066 54.9135C0.329974 54.3324 0.00243976 53.545 0 52.7232V51.2804L67.6322 51.2773Z" fill="#F0D157"/>
<path fill-rule="evenodd" clip-rule="evenodd" d="M67.6318 51.2773H39.8242L67.6318 23.4697V51.2773Z" fill="#F0D157"/>
<path fill-rule="evenodd" clip-rule="evenodd" d="M71.8783 46.6435V53.7002C71.8574 54.2491 71.6246 54.7686 71.2288 55.1496C70.833 55.5305 70.3051 55.7434 69.7557 55.7434C69.2064 55.7434 68.6784 55.5305 68.2826 55.1496C67.8869 54.7686 67.6541 54.2491 67.6332 53.7002V51.277H7.34747C6.52544 51.2754 5.73753 50.9481 5.15627 50.3669C4.575 49.7856 4.24772 48.9977 4.24609 48.1756V22.1346C4.24853 21.3125 4.57597 20.5248 5.15697 19.9432C5.73798 19.3616 6.52541 19.0334 7.34747 19.0301H13.2574C14.7094 19.0301 15.5973 18.6324 16.4759 17.7569L22.7989 11.4308C23.7638 10.4751 24.4389 10.1083 26.0636 10.1113H68.4809C69.3791 10.1154 70.2393 10.474 70.8744 11.1091C71.5095 11.7442 71.8681 12.6044 71.8721 13.5025V46.6435H71.8783Z" fill="#CF9737"/>
<path fill-rule="evenodd" clip-rule="evenodd" d="M8.61451 0.21875H62.1672C62.8412 0.220378 63.4872 0.488861 63.9638 0.965483C64.4405 1.44211 64.7089 2.08808 64.7106 2.76212V42.6577C64.7089 43.3317 64.4405 43.9777 63.9638 44.4543C63.4872 44.9309 62.8412 45.1994 62.1672 45.201H8.61451C7.941 45.1986 7.29582 44.9297 6.81986 44.4532C6.3439 43.9767 6.07584 43.3312 6.07422 42.6577V2.76212C6.07584 2.08861 6.3439 1.44311 6.81986 0.96657C7.29582 0.490035 7.941 0.221191 8.61451 0.21875Z" fill="white"/>
<path fill-rule="evenodd" clip-rule="evenodd" d="M34.6207 13.9409H64.5246C65.3467 13.9434 66.1345 14.2708 66.716 14.8518C67.2976 15.4328 67.6259 16.2202 67.6291 17.0423V53.7008C67.6283 54.2628 67.8505 54.8022 68.2471 55.2004C68.6436 55.5987 69.182 55.8233 69.744 55.8249H3.10137C2.27959 55.8225 1.49216 55.4949 0.911066 54.9138C0.329974 54.3327 0.00243976 53.5453 0 52.7235V8.41949C0 7.52009 0.35728 6.65754 0.993247 6.02157C1.62921 5.38561 2.49177 5.02832 3.39117 5.02832H21.8114C23.436 5.02832 24.1112 5.38902 25.0761 6.34779L31.4022 12.6646C32.2808 13.5401 33.1687 13.9378 34.6207 13.9378V13.9409Z" fill="#FFDE59"/>
<path fill-rule="evenodd" clip-rule="evenodd" d="M67.6322 51.2771V53.7003C67.6314 54.2617 67.8532 54.8006 68.2491 55.1988C68.6449 55.597 69.1825 55.8219 69.744 55.8244H3.10137C2.27959 55.8219 1.49216 55.4944 0.911066 54.9133C0.329974 54.3322 0.00243976 53.5448 0 52.723V51.2802H39.84L67.6476 23.4727V51.2802L67.6322 51.2771Z" fill="#F0D157"/>
<path fill-rule="evenodd" clip-rule="evenodd" d="M66.7182 35.0957C69.3445 35.0951 71.912 35.8733 74.0959 37.3319C76.2799 38.7906 77.9822 40.8641 78.9877 43.2903C79.9931 45.7164 80.2565 48.3863 79.7445 50.9622C79.2325 53.538 77.9682 55.9042 76.1113 57.7615C74.2545 59.6188 71.8886 60.8837 69.3129 61.3963C66.7371 61.9088 64.0672 61.6461 61.6408 60.6412C59.2144 59.6363 57.1405 57.9344 55.6813 55.7508C54.2222 53.5672 53.4434 50.9999 53.4434 48.3737C53.4434 44.8527 54.8419 41.4758 57.3313 38.9858C59.8207 36.4958 63.1972 35.0965 66.7182 35.0957Z" fill="#253F66"/>
<path d="M71.5189 53.0508V51.8841C71.5189 51.2653 71.273 50.6718 70.8355 50.2342C70.3979 49.7966 69.8044 49.5508 69.1855 49.5508H64.5189C63.9 49.5508 63.3065 49.7966 62.869 50.2342C62.4314 50.6718 62.1855 51.2653 62.1855 51.8841V53.0508" stroke="white" stroke-linecap="round" stroke-linejoin="round"/>
<path d="M66.8509 47.2174C68.1396 47.2174 69.1842 46.1728 69.1842 44.8841C69.1842 43.5955 68.1396 42.5508 66.8509 42.5508C65.5622 42.5508 64.5176 43.5955 64.5176 44.8841C64.5176 46.1728 65.5622 47.2174 66.8509 47.2174Z" stroke="white" stroke-linecap="round" stroke-linejoin="round"/>
</svg>
