<svg width="150" height="117" viewBox="0 0 150 117" fill="none" xmlns="http://www.w3.org/2000/svg">
<path fill-rule="evenodd" clip-rule="evenodd" d="M141.141 106.554V111.611C141.139 112.782 141.602 113.907 142.428 114.738C143.254 115.569 144.376 116.038 145.548 116.043H6.47223C4.75725 116.038 3.11397 115.355 1.90129 114.142C0.688618 112.929 0.0050915 111.286 0 109.571V106.56L141.141 106.554Z" fill="#F0D157"/>
<path fill-rule="evenodd" clip-rule="evenodd" d="M141.141 106.554H83.1094L141.141 48.5225V106.554Z" fill="#F0D157"/>
<path fill-rule="evenodd" clip-rule="evenodd" d="M149.999 96.884V111.611C149.956 112.756 149.47 113.84 148.644 114.635C147.818 115.43 146.716 115.874 145.57 115.874C144.423 115.874 143.321 115.43 142.496 114.635C141.67 113.84 141.184 112.756 141.14 111.611V106.554H15.3306C13.6151 106.55 11.9709 105.867 10.7578 104.654C9.54479 103.441 8.8618 101.797 8.8584 100.082V45.7367C8.86348 44.0211 9.54681 42.3772 10.7593 41.1635C11.9718 39.9498 13.6151 39.2648 15.3306 39.258H27.6639C30.6941 39.258 32.547 38.4281 34.3806 36.6009L47.576 23.3991C49.5897 21.4047 50.9986 20.6391 54.3892 20.6455H142.909C144.784 20.654 146.579 21.4023 147.904 22.7277C149.23 24.0531 149.978 25.8482 149.986 27.7225V96.884H149.999Z" fill="#CF9737"/>
<path fill-rule="evenodd" clip-rule="evenodd" d="M17.9751 0H129.734C131.14 0.00339773 132.488 0.563691 133.483 1.55835C134.478 2.55301 135.038 3.90108 135.041 5.30774V88.5653C135.038 89.9719 134.478 91.32 133.483 92.3147C132.488 93.3093 131.14 93.8696 129.734 93.873H17.9751C16.5696 93.8679 15.2232 93.3069 14.2299 92.3124C13.2366 91.3179 12.6772 89.9708 12.6738 88.5653V5.30774C12.6772 3.9022 13.2366 2.55509 14.2299 1.56062C15.2232 0.566142 16.5696 0.00509464 17.9751 0Z" fill="white"/>
<path fill-rule="evenodd" clip-rule="evenodd" d="M72.2496 28.6362H134.656C136.371 28.6413 138.015 29.3246 139.229 30.5371C140.443 31.7496 141.128 33.3929 141.134 35.1085V111.611C141.133 112.784 141.597 113.909 142.424 114.74C143.252 115.571 144.375 116.04 145.548 116.043H6.47223C4.75725 116.038 3.11397 115.355 1.90129 114.142C0.688618 112.929 0.0050915 111.286 0 109.571V17.1136C0 15.2367 0.745604 13.4366 2.0728 12.1094C3.39999 10.7822 5.20005 10.0366 7.07699 10.0366H45.5179C48.9084 10.0366 50.3174 10.7894 52.3311 12.7902L65.5329 25.9727C67.3665 27.7999 69.2194 28.6298 72.2496 28.6298V28.6362Z" fill="#FFDE59"/>
<path fill-rule="evenodd" clip-rule="evenodd" d="M141.141 106.554V111.61C141.139 112.782 141.602 113.907 142.428 114.738C143.254 115.569 144.376 116.038 145.548 116.043H6.47223C4.75725 116.038 3.11397 115.355 1.90129 114.142C0.688618 112.929 0.0050915 111.286 0 109.571V106.56H83.1417L141.173 48.5288V106.56L141.141 106.554Z" fill="#F0D157"/>
</svg>