<svg width="24" height="24" viewBox="0 0 24 24" fill="none" xmlns="http://www.w3.org/2000/svg">
<g opacity="0.4">
<path d="M20 12.3999H4" stroke="#253F66" stroke-linecap="round" stroke-linejoin="round"/>
<path d="M6.76 6.888L4 12.4V17.2C4 17.6243 4.16857 18.0313 4.46863 18.3314C4.76869 18.6314 5.17565 18.8 5.6 18.8H18.4C18.8243 18.8 19.2313 18.6314 19.5314 18.3314C19.8314 18.0313 20 17.6243 20 17.2V12.4L17.24 6.888C17.1075 6.62143 16.9033 6.3971 16.6504 6.24022C16.3974 6.08335 16.1057 6.00016 15.808 6H8.192C7.89433 6.00016 7.60261 6.08335 7.34964 6.24022C7.09666 6.3971 6.89246 6.62143 6.76 6.888V6.888Z" stroke="#253F66" stroke-linecap="round" stroke-linejoin="round"/>
<path d="M7.19922 15.6001H7.20722" stroke="#253F66" stroke-linecap="round" stroke-linejoin="round"/>
<path d="M10.4004 15.6001H10.4084" stroke="#253F66" stroke-linecap="round" stroke-linejoin="round"/>
</g>
</svg>