<svg width="162" height="40" viewBox="0 0 162 40" fill="none" xmlns="http://www.w3.org/2000/svg">
<path d="M46.3503 14.3791C46.8415 12.8935 47.3072 11.4896 47.7627 10.0976C47.8188 9.92762 47.9327 9.88853 48.0806 9.86134C50.54 9.40243 53.0096 9.0115 55.5217 9.13557C57.2945 9.21886 58.9992 9.58089 60.5255 10.5327C62.5957 11.8211 63.5424 13.7621 63.6767 16.1416C63.7549 17.5098 63.5322 18.8611 63.3368 20.2004C62.9306 22.9301 62.5124 25.6564 62.1198 28.386C62.1091 28.5005 62.0678 28.61 62.0002 28.703C61.9326 28.796 61.8413 28.8691 61.7357 28.9146C60.1346 29.7934 58.3975 30.2744 56.6129 30.5667C54.4043 30.9494 52.1516 31.0066 49.9264 30.7367C48.0721 30.5038 46.3435 29.9276 44.9974 28.5645C44.4132 27.9663 43.9597 27.2533 43.6657 26.4705C43.3716 25.6878 43.2435 24.8526 43.2894 24.0177C43.3352 23.1829 43.5541 22.3667 43.9321 21.6209C44.3101 20.8751 44.839 20.216 45.4852 19.6854C46.8653 18.55 48.497 17.9858 50.2153 17.6203C52.8175 17.0696 55.4435 17.1444 58.0712 17.345C58.3992 17.3688 58.4706 17.2685 58.4859 16.9761C58.6032 14.9263 57.3726 13.4544 55.2124 13.0584C53.7133 12.7831 52.2413 13.021 50.7694 13.2624C49.2676 13.5095 47.7893 13.883 46.3503 14.3791ZM55.5421 20.5624C54.6067 20.5564 53.6723 20.6251 52.7478 20.7681C51.7484 20.9381 50.7779 21.2015 49.9723 21.8644C49.0613 22.6139 48.8182 23.6202 48.9984 24.7283C49.1683 25.7396 49.8754 26.2937 50.7915 26.6201C51.2114 26.7678 51.6483 26.862 52.0918 26.9005C53.7303 27.0586 55.3211 26.773 56.9018 26.3821C57.0091 26.368 57.1074 26.315 57.1782 26.2333C57.249 26.1515 57.2873 26.0466 57.286 25.9385C57.5018 24.3323 57.716 22.7244 57.9539 21.1216C57.9947 20.8446 57.9029 20.7919 57.6718 20.7477C56.9677 20.6315 56.2557 20.5695 55.5421 20.5624Z" fill="white"/>
<path d="M122.23 25.5731C121.958 26.3992 121.72 27.1385 121.468 27.8779C121.268 28.4847 121.053 29.0864 120.863 29.6982C120.845 29.7919 120.799 29.878 120.732 29.9458C120.665 30.0136 120.579 30.0599 120.486 30.079C117.885 30.7724 115.251 31.1481 112.565 30.8098C109.506 30.424 106.977 29.1102 105.427 26.304C104.473 24.567 104.171 22.6752 104.3 20.7257C104.546 17.017 106.091 13.9423 108.964 11.5611C110.709 10.113 112.745 9.36851 114.986 9.14755C116.531 8.99628 118.067 9.02518 119.575 9.445C122.644 10.2948 124.691 12.6829 125.083 15.8442C125.309 17.6612 125.083 19.4458 124.789 21.2322C124.754 21.4549 124.641 21.4617 124.471 21.4617C123.647 21.4617 122.821 21.4617 121.997 21.4617C118.031 21.4617 114.065 21.4617 110.099 21.4617C109.78 21.4617 109.686 21.5398 109.681 21.8679C109.637 24.5398 111.112 26.304 113.738 26.7544C115.679 27.0944 117.567 26.8003 119.452 26.389C120.395 26.1782 121.323 25.9057 122.23 25.5731ZM115.295 17.9926H119.102C120.265 17.9926 120.265 17.9926 120.304 16.8301C120.384 14.476 118.944 12.9412 116.604 12.8103C113.804 12.6523 111.165 14.68 110.485 17.6884C110.429 17.9382 110.485 17.9994 110.74 17.9977C112.254 17.9858 113.765 17.9926 115.295 17.9926Z" fill="white"/>
<path d="M132.003 30.878C129.508 30.8614 127.03 30.4484 124.664 29.6543C124.428 29.5727 124.365 29.5047 124.45 29.248C124.839 28.0707 125.211 26.8878 125.567 25.6991C125.655 25.4068 125.759 25.4306 125.993 25.5428C128.266 26.6544 130.833 27.0162 133.324 26.5762C133.909 26.4871 134.463 26.2599 134.942 25.9133C135.164 25.7597 135.348 25.5584 135.482 25.3242C135.615 25.09 135.694 24.8288 135.714 24.5599C135.733 24.291 135.691 24.0213 135.593 23.7704C135.494 23.5196 135.34 23.2941 135.143 23.1105C134.711 22.7106 134.226 22.3721 133.701 22.1043C132.401 21.3769 131.079 20.6953 129.843 19.8523C126.524 17.5798 126.928 12.8496 130.197 10.7743C131.645 9.85483 133.231 9.39422 134.915 9.21915C137.723 8.92851 140.437 9.40951 143.112 10.2152C143.357 10.2882 143.42 10.3545 143.327 10.6146C142.924 11.7313 142.535 12.8547 142.169 13.985C142.072 14.2825 141.957 14.2604 141.727 14.155C140.054 13.3654 138.222 12.97 136.372 12.9992C135.474 13.0213 134.599 13.1692 133.839 13.6995C133.516 13.9054 133.27 14.2117 133.138 14.5713C133.006 14.9308 132.995 15.3238 133.108 15.6898C133.255 16.1002 133.531 16.4517 133.895 16.6909C134.682 17.2824 135.583 17.6818 136.445 18.1543C137.499 18.7048 138.505 19.3427 139.453 20.0613C142.254 22.2845 141.97 26.5201 139.283 28.6719C137.549 30.0571 135.52 30.6112 133.361 30.8083C132.819 30.8559 132.28 30.8644 132.003 30.878Z" fill="white"/>
<path d="M150.337 30.8778C147.875 30.854 145.431 30.4451 143.095 29.666C142.825 29.5759 142.755 29.496 142.855 29.2105C143.239 28.0581 143.603 26.8989 143.957 25.7363C144.042 25.4542 144.126 25.4134 144.402 25.546C146.665 26.6473 149.217 27.0099 151.697 26.5828C152.228 26.4993 152.738 26.3097 153.194 26.0253C154.321 25.3063 154.459 23.9857 153.507 23.0611C153.108 22.7023 152.664 22.3967 152.186 22.1517C150.827 21.3801 149.414 20.69 148.134 19.7722C145.182 17.6391 145.549 13.7792 147.354 11.8415C148.571 10.5379 150.108 9.83763 151.812 9.462C154.075 8.9521 156.335 9.07448 158.594 9.4926C159.546 9.66256 160.477 9.92091 161.409 10.1725C161.718 10.2591 161.83 10.3509 161.699 10.7045C161.307 11.7702 160.95 12.8477 160.603 13.9338C160.506 14.2313 160.409 14.2738 160.117 14.1463C158.466 13.371 156.662 12.9766 154.838 12.9922C153.988 13.0075 153.167 13.1333 152.426 13.5786C151.724 13.9984 151.369 14.6086 151.474 15.4482C151.54 15.9819 151.862 16.3542 152.266 16.6601C153.116 17.3043 154.093 17.7292 155.018 18.2391C156.072 18.8221 157.112 19.4289 158.031 20.2124C160.608 22.422 160.318 26.5182 157.732 28.6258C156.344 29.7594 154.732 30.3475 152.994 30.6518C152.115 30.7945 151.227 30.8701 150.337 30.8778Z" fill="white"/>
<path d="M83.0011 25.8739C82.9144 26.3838 82.6952 26.841 82.5337 27.322C82.2261 28.2381 81.898 29.1458 81.5938 30.0636C81.5714 30.1554 81.5206 30.2377 81.4485 30.2988C81.3764 30.3598 81.2869 30.3965 81.1927 30.4035C79.1531 30.7435 77.0914 30.9593 75.0195 30.8029C71.9278 30.5701 69.2763 29.4432 67.4543 26.8087C66.1693 24.9527 65.7155 22.8434 65.8294 20.6219C66.0197 16.9166 67.5902 13.8844 70.4848 11.5627C72.1436 10.2335 74.0949 9.58088 76.1736 9.30893C78.7467 8.94423 81.3668 9.10087 83.8782 9.76954C84.3575 9.90042 84.8198 10.084 85.2906 10.2369C85.4605 10.2913 85.5047 10.3644 85.4418 10.5497C85.0407 11.7225 84.643 12.8986 84.2674 14.0799C84.1841 14.34 84.0668 14.2873 83.8986 14.221C82.6984 13.7289 81.4276 13.4311 80.1338 13.3388C77.3344 13.1808 74.9005 13.9507 73.1532 16.281C71.5165 18.465 71.2632 22.0921 73.0156 24.2847C74.1051 25.6444 75.543 26.3651 77.2494 26.564C79.0902 26.7781 80.8697 26.4229 82.6272 25.9181C82.7394 25.8858 82.8533 25.8637 82.9671 25.8365L83.0011 25.8739Z" fill="white"/>
<path d="M102.378 25.8503C101.987 26.9755 101.539 28.0887 101.217 29.2377C100.985 30.0756 100.592 30.4734 99.6775 30.5652C97.128 30.8201 94.5785 31.1057 92.029 30.4309C88.0195 29.3652 85.4003 26.1664 85.1827 22.009C84.9448 17.4913 86.675 13.8812 90.314 11.211C91.8437 10.091 93.6284 9.56065 95.4912 9.3176C98.0637 8.9541 100.683 9.11015 103.194 9.77651C103.66 9.90399 104.107 10.0944 104.571 10.2286C104.814 10.3 104.821 10.4105 104.741 10.6229C104.352 11.76 103.966 12.8971 103.604 14.0427C103.517 14.3163 103.413 14.3061 103.191 14.2211C101.409 13.5413 99.5874 13.1724 97.6651 13.3713C94.4 13.7214 91.9151 15.88 91.2879 19.0567C90.8358 21.3496 91.2505 23.4469 93.0777 25.0701C94.5343 26.3619 96.3071 26.7222 98.1954 26.6117C99.5276 26.524 100.844 26.2728 102.115 25.8639C102.191 25.8503 102.259 25.7874 102.378 25.8503Z" fill="white"/>
<path d="M37.6273 21.1728L16.4545 0V3.24977L34.3775 21.1728L34.3843 21.1796L18.8595 36.7043L18.8408 36.6856L3.32625 21.1728L3.31265 21.1592L10.9289 13.543H7.62301L0 21.166L0.00679883 21.1728L18.834 40L18.8408 39.9932L37.6443 21.1898L37.6273 21.1728Z" fill="#FE6309"/>
<path d="M16.4476 5.48633V8.7361L28.8909 21.1794L18.8662 31.204L8.83309 21.1726L8.81949 21.159L16.4357 13.5428H13.1298L5.50684 21.1658L5.51363 21.1726L17.2057 32.8646L18.8407 34.4997L20.503 32.8391L32.1508 21.1896L16.4476 5.48633Z" fill="#FE6309"/>
<path d="M26.6626 21.1729L20.4537 14.9573L18.8016 13.3052L17.1767 14.9301L10.9355 21.1661L17.1801 27.4107L18.8152 29.0458L20.4741 27.3852L26.6796 21.1899L26.6626 21.1729ZM18.8441 25.7621L14.255 21.1729L14.2414 21.1593L18.8186 16.5821L23.4077 21.1712L18.8441 25.7621Z" fill="#FE6309"/>
</svg>
