<svg width="130" height="32" viewBox="0 0 130 32" fill="none" xmlns="http://www.w3.org/2000/svg">
<path d="M37.08 11.5034C37.473 10.315 37.8456 9.19189 38.21 8.07827C38.2549 7.94229 38.346 7.91102 38.4643 7.88926C40.4318 7.52214 42.4075 7.20939 44.4172 7.30865C45.8354 7.37528 47.1992 7.66491 48.4202 8.42636C50.0764 9.45704 50.8338 11.0099 50.9412 12.9135C51.0037 14.0081 50.8256 15.0891 50.6692 16.1605C50.3443 18.3443 50.0098 20.5253 49.6957 22.709C49.6871 22.8006 49.654 22.8882 49.6 22.9626C49.5459 23.037 49.4728 23.0955 49.3884 23.1319C48.1075 23.8349 46.7178 24.2197 45.2901 24.4536C43.5232 24.7597 41.7211 24.8055 39.9409 24.5895C38.4575 24.4032 37.0746 23.9423 35.9977 22.8518C35.5303 22.3732 35.1676 21.8028 34.9323 21.1766C34.6971 20.5505 34.5946 19.8823 34.6313 19.2144C34.668 18.5465 34.8431 17.8935 35.1455 17.2969C35.4479 16.7003 35.871 16.173 36.3879 15.7485C37.492 14.8402 38.7974 14.3888 40.1721 14.0965C42.2538 13.6559 44.3546 13.7157 46.4568 13.8762C46.7192 13.8952 46.7763 13.815 46.7885 13.5811C46.8824 11.9413 45.8979 10.7637 44.1697 10.4469C42.9704 10.2266 41.7929 10.417 40.6153 10.6101C39.4139 10.8078 38.2312 11.1066 37.08 11.5034V11.5034ZM44.4335 16.4502C43.6852 16.4453 42.9376 16.5003 42.1981 16.6147C41.3986 16.7507 40.6222 16.9614 39.9776 17.4917C39.2488 18.0914 39.0544 18.8963 39.1985 19.7829C39.3345 20.5919 39.9001 21.0352 40.633 21.2963C40.969 21.4144 41.3184 21.4898 41.6732 21.5206C42.984 21.6471 44.2567 21.4186 45.5213 21.1059C45.607 21.0946 45.6857 21.0522 45.7423 20.9868C45.799 20.9214 45.8297 20.8375 45.8286 20.751C46.0013 19.466 46.1726 18.1797 46.363 16.8975C46.3956 16.6759 46.3222 16.6337 46.1372 16.5984C45.574 16.5054 45.0044 16.4558 44.4335 16.4502V16.4502Z" fill="#114185"/>
<path d="M97.7835 20.4583C97.5659 21.1192 97.3756 21.7106 97.1743 22.3021C97.0139 22.7875 96.8425 23.2689 96.6902 23.7584C96.6757 23.8333 96.6392 23.9022 96.5855 23.9564C96.5318 24.0107 96.4632 24.0477 96.3884 24.063C94.308 24.6178 92.2004 24.9183 90.052 24.6477C87.6045 24.339 85.5812 23.2879 84.3411 21.043C83.5783 19.6534 83.3363 18.14 83.4396 16.5804C83.6368 13.6134 84.8728 11.1537 87.1707 9.24867C88.5672 8.09018 90.1961 7.49461 91.9883 7.31785C93.2243 7.19683 94.4535 7.21995 95.6596 7.5558C98.1152 8.23567 99.7524 10.1461 100.066 12.6752C100.247 14.1288 100.066 15.5565 99.8312 16.9856C99.8027 17.1637 99.7129 17.1691 99.577 17.1691C98.9175 17.1691 98.2567 17.1691 97.5972 17.1691C94.4245 17.1691 91.2518 17.1691 88.079 17.1691C87.8234 17.1691 87.7486 17.2317 87.7445 17.4941C87.7092 19.6316 88.8894 21.043 90.9902 21.4033C92.5431 21.6753 94.0537 21.4401 95.5617 21.111C96.3158 20.9424 97.058 20.7243 97.7835 20.4583V20.4583ZM92.2358 14.3939H95.2816C96.2116 14.3939 96.2116 14.3939 96.2429 13.4639C96.3068 11.5806 95.1551 10.3528 93.2827 10.2481C91.0433 10.1216 88.9316 11.7438 88.3877 14.1505C88.3428 14.3504 88.3877 14.3993 88.5917 14.398C89.8032 14.3885 91.012 14.3939 92.2358 14.3939Z" fill="#114185"/>
<path d="M105.603 24.7025C103.606 24.6892 101.624 24.3588 99.7314 23.7235C99.5424 23.6582 99.4921 23.6039 99.5601 23.3985C99.871 22.4567 100.169 21.5103 100.453 20.5594C100.524 20.3255 100.607 20.3446 100.795 20.4343C102.613 21.3236 104.666 21.6131 106.659 21.261C107.127 21.1898 107.571 21.008 107.954 20.7307C108.131 20.6079 108.278 20.4468 108.385 20.2595C108.492 20.0721 108.555 19.8632 108.571 19.648C108.586 19.4329 108.553 19.2171 108.474 19.0164C108.395 18.8158 108.272 18.6354 108.114 18.4885C107.769 18.1686 107.381 17.8977 106.961 17.6836C105.921 17.1016 104.863 16.5563 103.875 15.8819C101.219 14.064 101.543 10.2798 104.157 8.61958C105.316 7.88396 106.584 7.51547 107.932 7.37542C110.178 7.14291 112.35 7.52771 114.49 8.17222C114.686 8.23069 114.736 8.28372 114.661 8.49176C114.339 9.38511 114.028 10.2839 113.735 11.1881C113.658 11.4261 113.565 11.4084 113.382 11.3241C112.043 10.6924 110.577 10.3761 109.097 10.3995C108.379 10.4171 107.679 10.5354 107.071 10.9597C106.813 11.1244 106.616 11.3695 106.51 11.6571C106.405 11.9448 106.396 12.2591 106.487 12.5519C106.604 12.8803 106.825 13.1615 107.116 13.3528C107.746 13.826 108.466 14.1455 109.156 14.5235C109.999 14.9639 110.804 15.4743 111.562 16.0492C113.803 17.8277 113.576 21.2162 111.426 22.9376C110.04 24.0458 108.416 24.489 106.689 24.6468C106.255 24.6848 105.824 24.6916 105.603 24.7025Z" fill="#114185"/>
<path d="M120.269 24.7025C118.299 24.6834 116.345 24.3563 114.476 23.733C114.259 23.6609 114.204 23.597 114.284 23.3686C114.591 22.4467 114.882 21.5193 115.165 20.5893C115.233 20.3635 115.301 20.3309 115.521 20.437C117.332 21.318 119.373 21.6082 121.357 21.2664C121.782 21.1997 122.19 21.048 122.555 20.8204C123.457 20.2452 123.567 19.1887 122.805 18.449C122.486 18.1621 122.131 17.9175 121.749 17.7216C120.661 17.1043 119.531 16.5522 118.507 15.818C116.145 14.1115 116.439 11.0235 117.883 9.47343C118.857 8.43051 120.086 7.8703 121.45 7.5698C123.26 7.16188 125.068 7.25978 126.875 7.59427C127.637 7.73025 128.382 7.93693 129.127 8.13817C129.374 8.20751 129.464 8.28094 129.359 8.56376C129.045 9.41632 128.76 10.2784 128.482 11.1473C128.405 11.3852 128.327 11.4192 128.093 11.3172C126.773 10.697 125.329 10.3815 123.87 10.394C123.19 10.4062 122.533 10.5068 121.941 10.8631C121.379 11.1989 121.095 11.6871 121.179 12.3588C121.232 12.7857 121.489 13.0835 121.813 13.3283C122.493 13.8436 123.274 14.1836 124.014 14.5915C124.857 15.0579 125.689 15.5433 126.425 16.1701C128.486 17.9378 128.254 21.2147 126.186 22.9008C125.075 23.8078 123.786 24.2782 122.395 24.5216C121.692 24.6358 120.981 24.6962 120.269 24.7025Z" fill="#114185"/>
<path d="M66.4013 20.6993C66.3319 21.1072 66.1565 21.473 66.0274 21.8578C65.7813 22.5907 65.5188 23.3168 65.2754 24.0511C65.2575 24.1245 65.2168 24.1903 65.1592 24.2392C65.1015 24.2881 65.0299 24.3174 64.9545 24.323C63.3229 24.595 61.6735 24.7676 60.016 24.6425C57.5426 24.4563 55.4214 23.5548 53.9638 21.4472C52.9358 19.9623 52.5728 18.2749 52.6639 16.4977C52.8162 13.5335 54.0726 11.1077 56.3882 9.25035C57.7153 8.18703 59.2763 7.6649 60.9392 7.44734C62.9977 7.15558 65.0939 7.28089 67.1029 7.81583C67.4864 7.92053 67.8562 8.06738 68.2329 8.18975C68.3688 8.23327 68.4042 8.29173 68.3539 8.43995C68.033 9.37816 67.7148 10.3191 67.4143 11.2641C67.3477 11.4722 67.2538 11.43 67.1192 11.377C66.1591 10.9833 65.1425 10.7451 64.1074 10.6713C61.8679 10.5448 59.9208 11.1608 58.523 13.025C57.2136 14.7722 57.011 17.6739 58.4128 19.428C59.2844 20.5158 60.4348 21.0923 61.7999 21.2514C63.2725 21.4227 64.6962 21.1385 66.1021 20.7347C66.1919 20.7088 66.283 20.6912 66.3741 20.6694L66.4013 20.6993Z" fill="#114185"/>
<path d="M81.9026 20.6803C81.5899 21.5805 81.2309 22.4711 80.9739 23.3903C80.7876 24.0606 80.4735 24.3788 79.742 24.4522C77.7024 24.6562 75.6628 24.8846 73.6232 24.3448C70.4156 23.4923 68.3202 20.9332 68.1462 17.6073C67.9558 13.9931 69.34 11.1051 72.2512 8.96892C73.475 8.07286 74.9027 7.64862 76.393 7.45418C78.451 7.16338 80.5464 7.28822 82.5553 7.82131C82.9279 7.92329 83.2855 8.07558 83.6567 8.183C83.8511 8.24011 83.8566 8.32849 83.7926 8.49845C83.4813 9.40812 83.1726 10.3178 82.883 11.2342C82.8136 11.4532 82.7307 11.445 82.5526 11.377C81.1276 10.8331 79.6699 10.5381 78.1321 10.6971C75.52 10.9773 73.5321 12.7041 73.0303 15.2455C72.6687 17.0797 73.0004 18.7577 74.4621 20.0562C75.6274 21.0896 77.0456 21.3779 78.5563 21.2895C79.6221 21.2193 80.6751 21.0184 81.6919 20.6912C81.753 20.6803 81.8074 20.63 81.9026 20.6803Z" fill="#114185"/>
<path d="M30.1018 16.9382L13.1636 0V2.59982L27.502 16.9382L27.5074 16.9437L15.0876 29.3635L15.0727 29.3485L2.661 16.9382L2.65012 16.9273L8.7431 10.8344H6.09841L0 16.9328L0.00543906 16.9382L15.0672 32L15.0727 31.9946L30.1154 16.9518L30.1018 16.9382Z" fill="#FE6309"/>
<path d="M13.1579 4.38916V6.98898L23.1125 16.9436L15.0928 24.9633L7.06627 16.9382L7.0554 16.9273L13.1484 10.8343H10.5037L4.40527 16.9327L4.41071 16.9382L13.7643 26.2918L15.0724 27.5998L16.4022 26.2714L25.7205 16.9518L13.1579 4.38916Z" fill="#FE6309"/>
<path d="M21.3297 16.9383L16.3626 11.9657L15.0409 10.644L13.741 11.944L8.74805 16.9328L13.7437 21.9285L15.0518 23.2365L16.3789 21.9081L21.3433 16.9519L21.3297 16.9383ZM15.0749 20.6095L11.4036 16.9383L11.3927 16.9274L15.0545 13.2656L18.7258 16.9369L15.0749 20.6095Z" fill="#FE6309"/>
</svg>
