<svg width="61" height="45" viewBox="0 0 61 45" fill="none" xmlns="http://www.w3.org/2000/svg">
<path d="M8.05095 42.3947C9.2457 43.9723 11.1319 44.8412 13.3612 44.8412H46.2658C50.5501 44.8412 54.7978 41.6054 55.9345 37.4759L60.7157 20.1236C61.3071 17.976 60.9705 15.9253 59.7693 14.3477C58.5671 12.7701 56.6798 11.9023 54.4516 11.9023H51.1781L50.4608 9.0525C49.7167 6.08551 45.7635 3.76269 41.4631 3.76269H29.3758C26.2228 3.76269 24.0688 3.11746 23.5547 2.75183C22.2008 0.287052 16.1701 0.160156 14.9517 0.160156H7.13365C4.94417 0.160156 2.99881 1.01831 1.65673 2.57869C0.314651 4.138 -0.245623 6.18767 0.0995749 8.45781L6.91535 39.6944C7.06698 40.6806 7.44766 41.5989 8.05095 42.3947ZM57.2024 16.3027C57.7799 17.0609 57.9218 18.1137 57.6046 19.2665L52.8245 36.6199C52.0793 39.3277 49.0757 41.6161 46.2658 41.6161H13.3612C12.1654 41.6161 11.1932 41.201 10.6222 40.4483C10.0512 39.6944 9.91567 38.6459 10.2394 37.4953L13.5268 25.8188C14.2892 23.111 17.31 20.8226 20.1221 20.8226H30.6082C34.3828 20.8226 38.6316 19.4557 39.4467 16.849C39.6575 16.3339 41.8728 15.1284 45.2097 15.1284H54.4505C55.6495 15.1284 56.626 15.5457 57.2024 16.3027ZM4.10215 4.68106C4.82158 3.84549 5.89911 3.38415 7.13473 3.38415H14.9528C18.1058 3.38415 20.2598 4.02938 20.7738 4.39609C22.1288 6.86087 28.1574 6.98776 29.3758 6.98776H41.4642C44.4139 6.98776 46.9959 8.49222 47.3336 9.83752L47.8519 11.9012H45.2108C41.4351 11.9012 37.1874 13.268 36.3722 15.8747C36.1604 16.3898 33.9451 17.5953 30.6093 17.5953H20.1232C15.8443 17.5953 11.5825 20.8226 10.4222 24.9423L8.49401 31.7936L3.27088 7.87065C3.08699 6.65009 3.38272 5.51664 4.10215 4.68106Z" fill="#FC4E2C"/>
</svg>