<svg width="150" height="147" viewBox="0 0 150 147" fill="none" xmlns="http://www.w3.org/2000/svg">
<g opacity="0.4" clip-path="url(#clip0)">
<path d="M95.2266 32.9293H54.8082C53.8871 32.9304 53.0041 33.2968 52.3528 33.9481C51.7015 34.5994 51.3351 35.4824 51.334 36.4035V126.234L50.8708 126.375L40.9555 129.412C40.4855 129.555 39.978 129.506 39.5442 129.275C39.1104 129.045 38.7858 128.652 38.6417 128.182L9.14823 31.843C9.0047 31.3731 9.05362 30.8654 9.28424 30.4316C9.51486 29.9977 9.9083 29.6732 10.3781 29.5292L25.6576 24.8507L69.9533 11.2922L85.2326 6.6136C85.4651 6.54204 85.7095 6.51703 85.9517 6.54001C86.1939 6.56299 86.4292 6.63351 86.6441 6.74753C86.859 6.86155 87.0494 7.01682 87.2042 7.20448C87.359 7.39214 87.4753 7.60849 87.5465 7.84114L95.0854 32.4661L95.2266 32.9293Z" fill="#F2F2F2"/>
<path d="M104.047 32.4664L94.9604 2.78773C94.8093 2.29323 94.5621 1.83336 94.2332 1.4344C93.9042 1.03545 93.4999 0.705222 93.0432 0.462599C92.5866 0.219976 92.0866 0.0697076 91.5719 0.0203862C91.0571 -0.0289352 90.5377 0.023657 90.0433 0.175152L68.5614 6.7506L24.268 20.3115L2.78607 26.8892C1.78813 27.1957 0.952543 27.8855 0.462717 28.8074C-0.0271087 29.7293 -0.131155 30.8078 0.173422 31.8063L31.2279 133.236C31.4753 134.042 31.9746 134.747 32.6524 135.249C33.3302 135.75 34.1508 136.021 34.994 136.022C35.3842 136.022 35.7722 135.964 36.145 135.849L50.8709 131.341L51.3341 131.198V130.714L50.8709 130.855L36.0084 135.406C35.1275 135.675 34.1761 135.583 33.3629 135.151C32.5496 134.719 31.9409 133.982 31.6703 133.102L0.618211 31.6697C0.484129 31.2336 0.437398 30.7752 0.480692 30.321C0.523986 29.8668 0.656451 29.4255 0.870511 29.0226C1.08457 28.6196 1.37602 28.2629 1.72816 27.9727C2.0803 27.6825 2.48622 27.4647 2.92268 27.3316L24.4046 20.7538L68.6981 7.1953L90.18 0.617534C90.5111 0.516505 90.8553 0.464993 91.2014 0.46467C91.9442 0.466338 92.667 0.705814 93.2638 1.14802C93.8606 1.59023 94.3002 2.21193 94.5181 2.92207L103.563 32.4664L103.706 32.9297H104.188L104.047 32.4664Z" fill="#55697D"/>
<path d="M28.4138 29.6049C27.9674 29.6046 27.5329 29.4612 27.1739 29.1958C26.815 28.9304 26.5505 28.557 26.4193 28.1303L23.4361 18.386C23.3559 18.1242 23.3281 17.8493 23.3542 17.5768C23.3804 17.3043 23.4599 17.0396 23.5883 16.7978C23.7168 16.5561 23.8916 16.342 24.1027 16.1678C24.3139 15.9936 24.5573 15.8627 24.8191 15.7826L65.5686 3.30716C66.0972 3.14585 66.6682 3.20086 67.1563 3.46013C67.6444 3.71939 68.0098 4.16173 68.1721 4.69004L71.1553 14.4345C71.3165 14.9631 71.2615 15.5341 71.0022 16.0222C70.743 16.5102 70.3007 16.8755 69.7724 17.0379L29.0228 29.5134C28.8255 29.574 28.6202 29.6048 28.4138 29.6049Z" fill="#FC4E2C"/>
<path d="M44.0414 10.4119C46.5997 10.4119 48.6736 8.338 48.6736 5.77969C48.6736 3.22138 46.5997 1.14746 44.0414 1.14746C41.4831 1.14746 39.4092 3.22138 39.4092 5.77969C39.4092 8.338 41.4831 10.4119 44.0414 10.4119Z" fill="#FC4E2C"/>
<path d="M44.0417 8.71322C45.6617 8.71322 46.9749 7.39995 46.9749 5.77995C46.9749 4.15995 45.6617 2.84668 44.0417 2.84668C42.4217 2.84668 41.1084 4.15995 41.1084 5.77995C41.1084 7.39995 42.4217 8.71322 44.0417 8.71322Z" fill="white"/>
<path d="M139.578 134.838H61.2929C60.771 134.838 60.2706 134.63 59.9015 134.261C59.5324 133.892 59.3248 133.391 59.3242 132.87V39.0668C59.3248 38.5449 59.5324 38.0445 59.9015 37.6754C60.2706 37.3063 60.771 37.0987 61.2929 37.0981H139.578C140.1 37.0987 140.6 37.3064 140.969 37.6754C141.338 38.0445 141.546 38.5449 141.546 39.0668V132.87C141.546 133.391 141.338 133.892 140.969 134.261C140.6 134.63 140.1 134.838 139.578 134.838Z" fill="#E6E6E6"/>
<path d="M103.562 32.4658H54.8075C53.7637 32.4673 52.7631 32.8826 52.025 33.6207C51.2869 34.3588 50.8716 35.3594 50.8701 36.4032V130.854L51.3333 130.713V36.4032C51.3345 35.4822 51.7008 34.5991 52.3521 33.9478C53.0034 33.2966 53.8864 32.9302 54.8075 32.929H103.705L103.562 32.4658ZM146.062 32.4658H54.8075C53.7637 32.4673 52.7631 32.8826 52.025 33.6207C51.2869 34.3588 50.8716 35.3594 50.8701 36.4032V142.481C50.8716 143.525 51.2869 144.526 52.025 145.264C52.7631 146.002 53.7637 146.417 54.8075 146.419H146.062C147.106 146.417 148.107 146.002 148.845 145.264C149.583 144.526 149.998 143.525 150 142.481V36.4032C149.998 35.3594 149.583 34.3588 148.845 33.6207C148.107 32.8826 147.106 32.4673 146.062 32.4658ZM149.537 142.481C149.536 143.402 149.169 144.285 148.518 144.937C147.867 145.588 146.984 145.954 146.062 145.955H54.8075C53.8864 145.954 53.0034 145.588 52.3521 144.937C51.7008 144.285 51.3345 143.402 51.3333 142.481V36.4032C51.3345 35.4822 51.7008 34.5991 52.3521 33.9478C53.0034 33.2966 53.8864 32.9302 54.8075 32.929H146.062C146.984 32.9302 147.867 33.2966 148.518 33.9478C149.169 34.5991 149.536 35.4822 149.537 36.4032V142.481Z" fill="#55697D"/>
<path d="M121.743 42.6568H79.1265C78.5738 42.6562 78.044 42.4363 77.6532 42.0456C77.2624 41.6548 77.0426 41.1249 77.042 40.5723V30.3814C77.0426 29.8287 77.2624 29.2989 77.6532 28.9081C78.044 28.5173 78.5738 28.2975 79.1265 28.2969H121.743C122.296 28.2975 122.826 28.5173 123.216 28.9081C123.607 29.2989 123.827 29.8287 123.828 30.3814V40.5723C123.827 41.1249 123.607 41.6548 123.216 42.0456C122.826 42.4363 122.296 42.6562 121.743 42.6568Z" fill="#FC4E2C"/>
<path d="M100.435 28.992C102.993 28.992 105.067 26.9181 105.067 24.3598C105.067 21.8015 102.993 19.7275 100.435 19.7275C97.8767 19.7275 95.8027 21.8015 95.8027 24.3598C95.8027 26.9181 97.8767 28.992 100.435 28.992Z" fill="#FC4E2C"/>
<path d="M100.435 27.181C101.993 27.181 103.256 25.9178 103.256 24.3595C103.256 22.8013 101.993 21.5381 100.435 21.5381C98.8765 21.5381 97.6133 22.8013 97.6133 24.3595C97.6133 25.9178 98.8765 27.181 100.435 27.181Z" fill="white"/>
</g>
<defs>
<clipPath id="clip0">
<rect width="150" height="146.419" fill="white"/>
</clipPath>
</defs>
</svg>
