<svg width="24" height="24" viewBox="0 0 24 24" fill="none" xmlns="http://www.w3.org/2000/svg">
<circle opacity="0.15" cx="12" cy="12" r="12" fill="#CB5641"/>
<path d="M7.33301 5V19H15.4997L18.9997 15.5V5H7.33301Z" fill="#EFEEEE"/>
<path d="M15.5 15.5V19L19 15.5H15.5Z" fill="#ABABAB"/>
<path d="M12 19H15.5V15.5L12 19Z" fill="#DEDEDD"/>
<path d="M5 8.5V12.5833H14.3333V8.5H5Z" fill="#CB5641"/>
<path d="M7.2238 9.29724C7.35213 9.29724 7.45946 9.31882 7.54755 9.36199C7.63563 9.40516 7.70563 9.46174 7.7593 9.53174C7.81296 9.60174 7.85146 9.68166 7.8748 9.77149C7.89755 9.86074 7.9098 9.95291 7.9098 10.0462C7.9098 10.1746 7.89055 10.2866 7.85205 10.3822C7.81355 10.4779 7.75988 10.5561 7.69105 10.6162C7.62221 10.6768 7.5388 10.7229 7.4408 10.7527C7.3428 10.7824 7.2343 10.7987 7.1153 10.7987H6.8458V11.7962H6.3418V9.29724H7.2238ZM7.0698 10.4289C7.17013 10.4289 7.2518 10.398 7.31305 10.3373C7.37488 10.2767 7.4058 10.1822 7.4058 10.0538C7.4058 9.92782 7.37896 9.83216 7.3253 9.76682C7.27163 9.70207 7.1818 9.66882 7.0558 9.66882H6.8458V10.4289H7.0698Z" fill="white"/>
<path d="M9.3592 9.29626C9.53479 9.29626 9.67537 9.32543 9.78329 9.3826C9.89062 9.43976 9.97404 9.52085 10.0335 9.6276C10.0936 9.73376 10.1333 9.86093 10.1543 10.0108C10.1753 10.1602 10.1858 10.327 10.1858 10.5108C10.1858 10.7301 10.173 10.9208 10.1461 11.083C10.1193 11.2446 10.0732 11.3788 10.0079 11.4838C9.94254 11.5893 9.85504 11.6669 9.74537 11.7183C9.6357 11.7696 9.49687 11.7953 9.32887 11.7953H8.5332V9.29626H9.3592ZM9.2612 11.4254C9.34987 11.4254 9.42104 11.4103 9.4747 11.3799C9.52837 11.3496 9.57095 11.2994 9.60245 11.2294C9.63454 11.1594 9.65554 11.0673 9.66545 10.9523C9.67595 10.8386 9.6812 10.6963 9.6812 10.5259C9.6812 10.3836 9.67595 10.2588 9.6672 10.1508C9.65787 10.0435 9.63862 9.95426 9.60945 9.8831C9.5797 9.81193 9.53712 9.75826 9.47937 9.72268C9.4222 9.68651 9.34579 9.66785 9.25012 9.66785H9.0372V11.4254H9.2612Z" fill="white"/>
<path d="M12.2637 9.29684V9.70984H11.3712V10.2978H12.2112V10.7108H11.3712V11.7958H10.8672V9.29684H12.2637Z" fill="white"/>
</svg>
