<svg width="200" height="150" viewBox="0 0 200 150" fill="none" xmlns="http://www.w3.org/2000/svg">
<g clip-path="url(#clip0)">
<path d="M200 131.164H0V131.264H200V131.164Z" fill="#E5E8F1"/>
<path d="M179.96 137.609H166.712V137.71H179.96V137.609Z" fill="#E5E8F1"/>
<path d="M132.488 138.699H129.012V138.799H132.488V138.699Z" fill="#E5E8F1"/>
<path d="M166.312 133.892H158.636V133.992H166.312V133.892Z" fill="#E5E8F1"/>
<path d="M38.2604 134.565H20.9844V134.665H38.2604V134.565Z" fill="#E5E8F1"/>
<path d="M44.3562 134.565H41.8242V134.665H44.3562V134.565Z" fill="#E5E8F1"/>
<path d="M90.0599 136.256H52.5879V136.356H90.0599V136.256Z" fill="#E5E8F1"/>
<path d="M94.8002 113.299H17.5642C16.9591 113.298 16.3792 113.057 15.9517 112.628C15.5243 112.199 15.2842 111.618 15.2842 111.012V2.28721C15.2842 1.6813 15.5243 1.10014 15.9517 0.671324C16.3792 0.242503 16.9591 0.00106114 17.5642 0L94.8002 0C95.406 0 95.9869 0.240974 96.4152 0.66991C96.8436 1.09885 97.0842 1.68061 97.0842 2.28721V111.012C97.0842 111.312 97.0251 111.61 96.9103 111.887C96.7956 112.165 96.6273 112.417 96.4152 112.629C96.2031 112.842 95.9514 113.01 95.6742 113.125C95.3971 113.24 95.1001 113.299 94.8002 113.299ZM17.5642 0.100141C16.9856 0.101202 16.4312 0.332093 16.0224 0.742134C15.6137 1.15218 15.3842 1.70786 15.3842 2.28721V111.012C15.3842 111.591 15.6137 112.147 16.0224 112.557C16.4312 112.967 16.9856 113.198 17.5642 113.199H94.8002C95.3791 113.198 95.934 112.967 96.3433 112.557C96.7527 112.147 96.9831 111.592 96.9842 111.012V2.28721C96.9831 1.70749 96.7527 1.15182 96.3433 0.741889C95.934 0.331963 95.3791 0.1012 94.8002 0.100141H17.5642Z" fill="#E5E8F1"/>
<path d="M181.324 113.299H104.084C103.478 113.298 102.898 113.057 102.47 112.628C102.042 112.199 101.801 111.618 101.8 111.012V2.28721C101.801 1.68093 102.042 1.09979 102.47 0.671079C102.898 0.242373 103.478 0.00105901 104.084 0L181.324 0C181.928 0.00211986 182.507 0.244029 182.934 0.672735C183.36 1.10144 183.6 1.68199 183.6 2.28721V111.012C183.6 111.617 183.36 112.198 182.934 112.626C182.507 113.055 181.928 113.297 181.324 113.299ZM104.084 0.100141C103.505 0.1012 102.95 0.331963 102.541 0.741889C102.131 1.15182 101.901 1.70749 101.9 2.28721V111.012C101.901 111.592 102.131 112.147 102.541 112.557C102.95 112.967 103.505 113.198 104.084 113.199H181.324C181.903 113.198 182.458 112.967 182.867 112.557C183.276 112.147 183.507 111.592 183.508 111.012V2.28721C183.507 1.70749 183.276 1.15182 182.867 0.741889C182.458 0.331963 181.903 0.1012 181.324 0.100141H104.084Z" fill="#E5E8F1"/>
<path d="M87.3795 92.4939H36.8115V96.0669H87.3795V92.4939Z" fill="#E5E8F1"/>
<path d="M87.3796 92.4939H65.3916V96.0669H87.3796V92.4939Z" fill="#C4C7D5"/>
<path d="M44.2835 96.071H36.8115V131.164H44.2835V96.071Z" fill="#E5E8F1"/>
<path d="M44.2835 99.6921L36.8115 97.1446V96.071H44.2835V99.6921Z" fill="#C4C7D5"/>
<path d="M87.3802 96.071H79.9082V131.164H87.3802V96.071Z" fill="#C4C7D5"/>
<path d="M72.8636 96.071H65.3916V131.164H72.8636V96.071Z" fill="#E5E8F1"/>
<path d="M72.8596 99.6921L65.3916 97.1446V96.071H72.8596V99.6921Z" fill="#C4C7D5"/>
<path d="M58.8001 96.071H51.3281V131.164H58.8001V96.071Z" fill="#C4C7D5"/>
<path d="M92.1324 12.9021H28.4004V67.2465H92.1324V12.9021Z" fill="#E5E8F1"/>
<path d="M92.1318 67.2466H92.8438V12.9022H92.1318V67.2466Z" fill="#C4C7D5"/>
<path d="M89.7324 64.843V15.3054L30.8004 15.3054V64.843H89.7324Z" fill="#F1F3F9"/>
<path d="M59.5557 57.3206C63.1557 45.3037 64.1557 27.5828 71.8117 30.0263C79.4676 32.4697 69.4397 58.6785 69.4397 58.6785L59.5557 57.3206Z" fill="white"/>
<path d="M65.7399 57.9214C62.0759 40.505 62.9999 17.3845 51.5999 17.9132C40.1999 18.4419 51.5999 58.6785 51.5999 58.6785L65.7399 57.9214Z" fill="white"/>
<path d="M73.7843 55.9666H48.8603C48.3517 55.9502 47.8571 56.1346 47.483 56.48C47.1088 56.8254 46.8852 57.3042 46.8603 57.8132C46.3523 69.3093 48.2323 81.0258 51.7323 92.4939H70.8163C74.3163 81.0258 76.1963 69.3093 75.6883 57.8132C75.6698 57.319 75.4614 56.851 75.1066 56.507C74.7519 56.1629 74.2782 55.9693 73.7843 55.9666Z" fill="#E5E8F1"/>
<path d="M130.48 18.9666H129.076V131.164H130.48V18.9666Z" fill="#C4C7D5"/>
<path d="M163.476 18.9666H162.072V131.164H163.476V18.9666Z" fill="#C4C7D5"/>
<path d="M120.524 18.9666H119.12V131.164H120.524V18.9666Z" fill="#E5E8F1"/>
<path d="M153.52 18.9666H152.116V131.164H153.52V18.9666Z" fill="#E5E8F1"/>
<path d="M163.476 18.1975H119.12V19.7317H163.476V18.1975Z" fill="#E5E8F1"/>
<path d="M163.476 45.6721H119.12V47.2063H163.476V45.6721Z" fill="#E5E8F1"/>
<path d="M163.476 73.1467H119.12V74.6809H163.476V73.1467Z" fill="#E5E8F1"/>
<path d="M163.476 100.621H119.12V102.155H163.476V100.621Z" fill="#E5E8F1"/>
<path d="M163.476 128.096H119.12V129.63H163.476V128.096Z" fill="#E5E8F1"/>
<path d="M163.476 18.1975H153.52V19.7317H163.476V18.1975Z" fill="#C4C7D5"/>
<path d="M163.476 45.6721H153.52V47.2063H163.476V45.6721Z" fill="#C4C7D5"/>
<path d="M163.476 73.1467H153.52V74.6809H163.476V73.1467Z" fill="#C4C7D5"/>
<path d="M163.476 100.621H153.52V102.155H163.476V100.621Z" fill="#C4C7D5"/>
<path d="M163.476 128.096H153.52V129.63H163.476V128.096Z" fill="#C4C7D5"/>
<path d="M137.012 27.5427V25.3796H131.68V27.5427C131.68 28.2205 131.411 28.8705 130.933 29.3498C130.454 29.829 129.805 30.0983 129.128 30.0983C128.45 30.0983 127.8 30.3679 127.321 30.848C126.842 31.328 126.572 31.979 126.572 32.6579V45.6641H142.124V32.6579C142.124 31.979 141.855 31.328 141.376 30.848C140.896 30.3679 140.246 30.0983 139.568 30.0983C139.233 30.0988 138.901 30.0331 138.59 29.9049C138.28 29.7767 137.999 29.5885 137.761 29.3512C137.524 29.1138 137.335 28.8319 137.207 28.5216C137.078 28.2113 137.012 27.8786 137.012 27.5427Z" fill="#F0F0F0"/>
<path d="M148.048 64.2102H124.68V73.1468H148.048V64.2102Z" fill="#F0F0F0"/>
<path d="M148.048 73.1467H152.116V64.2102H148.048V73.1467Z" fill="#D9E2F4"/>
<path d="M148.048 69.1692H152.116V68.1838H148.048V69.1692Z" fill="#E5E8F1"/>
<path d="M148.048 68.1877H124.68V69.1731H148.048V68.1877Z" fill="#F1F3F9"/>
<path d="M141.788 112.298H123.536V128.096H141.788V112.298Z" fill="#F0F0F0"/>
<path d="M141.788 128.096H144.964V112.298H141.788V128.096Z" fill="#D9E2F4"/>
<path d="M141.788 121.066H144.964V119.324H141.788V121.066Z" fill="#E5E8F1"/>
<path d="M141.788 119.328H123.536V121.07H141.788V119.328Z" fill="#F1F3F9"/>
<path d="M141.788 118.106H144.964V117.485H141.788V118.106Z" fill="#E5E8F1"/>
<path d="M141.788 117.485H123.536V118.106H141.788V117.485Z" fill="#F1F3F9"/>
<path d="M127.984 84.5588H124.68V100.621H127.984V84.5588Z" fill="#F0F0F0"/>
<path d="M127.984 90.283H124.68V94.8975H127.984V90.283Z" fill="#FAFAFA"/>
<path d="M127.985 100.621H139.225V84.5588H127.985V100.621Z" fill="#D9E2F4"/>
<path d="M133.088 82.4839H129.356V100.621H133.088V82.4839Z" fill="#E5E8F1"/>
<path d="M133.088 88.248H129.356V91.04H133.088V88.248Z" fill="#FAFAFA"/>
<path d="M133.088 92.9106H129.356V95.7026H133.088V92.9106Z" fill="#FAFAFA"/>
<path d="M133.092 100.617H145.784V82.4799H133.092V100.617Z" fill="#C4C7D5"/>
<path d="M137.244 84.5588H135.232V100.621H137.244V84.5588Z" fill="#F0F0F0"/>
<path d="M136.896 86.5938H135.576V98.5866H136.896V86.5938Z" fill="#FAFAFA"/>
<path d="M137.24 100.621H144.076V84.5588H137.24V100.621Z" fill="#D9E2F4"/>
<path d="M142.616 83.7097H140.344V100.617H142.616V83.7097Z" fill="#E5E8F1"/>
<path d="M142.616 89.0852H140.344V91.6889H142.616V89.0852Z" fill="#FAFAFA"/>
<path d="M142.616 93.4314H140.344V96.0351H142.616V93.4314Z" fill="#FAFAFA"/>
<path d="M142.616 100.621H150.336V83.7136H142.616V100.621Z" fill="#C4C7D5"/>
<path d="M141.584 62.7528C143.527 60.8068 143.527 57.6517 141.584 55.7057C139.641 53.7597 136.49 53.7597 134.547 55.7057C132.604 57.6517 132.604 60.8068 134.547 62.7528C136.49 64.6987 139.641 64.6987 141.584 62.7528Z" fill="#F1F3F9"/>
<path d="M144.123 64.1585C146.002 63.853 147.279 62.0793 146.974 60.197C146.669 58.3147 144.897 57.0365 143.018 57.342C141.138 57.6476 139.862 59.4212 140.167 61.3035C140.472 63.1858 142.243 64.4641 144.123 64.1585Z" fill="#E5E8F1"/>
<path d="M100 149.254C142.833 149.254 177.556 147.224 177.556 144.719C177.556 142.215 142.833 140.185 100 140.185C57.1673 140.185 22.4443 142.215 22.4443 144.719C22.4443 147.224 57.1673 149.254 100 149.254Z" fill="#F1F3F9"/>
<path d="M50.4443 113.656H101.82V140.229C101.82 140.569 101.753 140.906 101.623 141.221C101.493 141.535 101.303 141.821 101.062 142.062C100.822 142.302 100.537 142.493 100.223 142.623C99.9087 142.754 99.5722 142.821 99.2323 142.821H53.0323C52.6925 142.821 52.3559 142.754 52.0419 142.623C51.728 142.493 51.4427 142.302 51.2023 142.062C50.962 141.821 50.7714 141.535 50.6413 141.221C50.5113 140.906 50.4443 140.569 50.4443 140.229V113.656Z" fill="#335199"/>
<path d="M50.4437 113.656H86.7997L82.3278 107.924C81.8358 107.295 80.6198 106.786 79.6077 106.786H46.9117C45.9037 106.786 45.4797 107.295 45.9717 107.924L50.4437 113.656Z" fill="#335199"/>
<path opacity="0.2" d="M50.4437 113.656H86.7997L82.3278 107.924C81.8358 107.295 80.6198 106.786 79.6077 106.786H46.9117C45.9037 106.786 45.4797 107.295 45.9717 107.924L50.4437 113.656Z" fill="black"/>
<path d="M101.82 113.656H65.4678L69.9398 109.919C70.4318 109.518 71.6478 109.177 72.6598 109.177H105.352C106.364 109.177 106.784 109.51 106.292 109.919L101.82 113.656Z" fill="#335199"/>
<path opacity="0.2" d="M65.4678 113.656H101.82V140.229C101.82 140.569 101.753 140.906 101.623 141.221C101.493 141.535 101.302 141.821 101.062 142.062C100.821 142.302 100.536 142.493 100.222 142.623C99.9082 142.754 99.5716 142.821 99.2318 142.821H68.0558C67.7159 142.821 67.3794 142.754 67.0654 142.623C66.7514 142.493 66.4661 142.302 66.2258 142.062C65.9855 141.821 65.7948 141.535 65.6648 141.221C65.5347 140.906 65.4678 140.569 65.4678 140.229V113.656Z" fill="white"/>
<path opacity="0.5" d="M54.9561 113.656V131.873L56.2121 130.88L57.0961 131.873L57.8641 130.768L58.6521 131.873L59.7481 131.04L60.9561 131.873V113.656H54.9561Z" fill="white"/>
<path d="M63.0879 73.9158L56.6279 68.4841" stroke="#335199" stroke-miterlimit="10"/>
<path d="M66.4358 76.7278L64.4678 75.0735" stroke="#335199" stroke-miterlimit="10"/>
<path d="M85.7882 88.0998L107.1 61.4224L78.7242 37.5688L59.9242 59.1712L57.1242 64.5748C56.9848 64.7276 56.8784 64.9077 56.8119 65.1037C56.7454 65.2997 56.7202 65.5073 56.7379 65.7136C56.7556 65.9198 56.8157 66.1202 56.9146 66.302C57.0134 66.4838 57.1488 66.6431 57.3122 66.7699L82.9122 88.2961C83.3277 88.6334 83.8552 88.8007 84.3888 88.7643C84.9224 88.7279 85.4224 88.4905 85.7882 88.0998Z" fill="#335199"/>
<path opacity="0.5" d="M71.1725 68.4282L68.1045 73.3752L69.3405 73.6396L69.7605 74.7892L70.5805 74.8372L70.9605 75.8186L71.9645 76.111L72.7365 77.3408L75.8045 72.3898L71.1725 68.4282Z" fill="white"/>
<path opacity="0.1" d="M106.172 60.6453L87.0601 81.9953L59.9121 59.1712L78.7241 37.5688L106.172 60.6453Z" fill="black"/>
<path d="M106.172 60.645L87.0596 81.995L94.9716 82.5798L113.788 60.9775L106.172 60.645Z" fill="#335199"/>
<path opacity="0.3" d="M106.172 60.645L87.0596 81.995L94.9716 82.5798L113.788 60.9775L106.172 60.645Z" fill="black"/>
<path d="M71.1121 37.2322L51.9961 58.5822L59.9121 59.171L78.7241 37.5687L71.1121 37.2322Z" fill="#335199"/>
<path opacity="0.4" d="M71.1121 37.2322L51.9961 58.5822L59.9121 59.171L78.7241 37.5687L71.1121 37.2322Z" fill="black"/>
<path opacity="0.1" d="M100.288 67.2185L106.172 60.6453L78.7239 37.5688L75.2119 46.0448L100.288 67.2185Z" fill="black"/>
<path opacity="0.2" d="M59.9121 59.1712L78.7241 37.5688L75.2121 46.0448L61.9641 60.8936L59.9121 59.1712Z" fill="black"/>
<path d="M112.801 20.4488C112.877 20.7091 112.801 20.9575 112.633 21.0095C112.465 21.0616 112.269 20.8894 112.193 20.609C112.117 20.3286 112.193 20.1003 112.361 20.0522C112.529 20.0041 112.729 20.1924 112.801 20.4488Z" fill="#263238"/>
<path d="M112.828 20.9534C112.753 21.8334 112.556 22.6988 112.244 23.525C112.458 23.5996 112.685 23.6268 112.91 23.6046C113.135 23.5825 113.353 23.5116 113.548 23.3968L112.828 20.9534Z" fill="#ED847E"/>
<path d="M113.333 18.7383C113.359 18.7225 113.38 18.6997 113.393 18.6726C113.407 18.6454 113.413 18.615 113.411 18.5847C113.408 18.5544 113.397 18.5253 113.379 18.5008C113.361 18.4763 113.337 18.4573 113.309 18.4459C113.074 18.3572 112.821 18.3261 112.572 18.3554C112.323 18.3847 112.084 18.4734 111.877 18.6141C111.86 18.6267 111.846 18.6424 111.836 18.6603C111.826 18.6782 111.819 18.698 111.817 18.7184C111.814 18.7389 111.816 18.7597 111.821 18.7796C111.827 18.7996 111.836 18.8182 111.849 18.8344C111.874 18.8673 111.911 18.889 111.952 18.895C111.993 18.901 112.035 18.8907 112.069 18.8665C112.235 18.7574 112.424 18.6895 112.622 18.6686C112.82 18.6477 113.019 18.6744 113.205 18.7463C113.225 18.7539 113.247 18.7571 113.269 18.7557C113.291 18.7543 113.313 18.7484 113.333 18.7383Z" fill="#263238"/>
<path d="M121.696 22.1632C121.872 24.2862 122.396 28.1716 123.648 29.0689C123.648 29.0689 123.352 31.6205 118.848 32.2734C113.912 33.0064 116.128 30.1704 116.128 30.1704C118.724 29.129 118.36 27.1382 117.616 25.3276L119.52 23.1406C120.252 22.3274 121.6 21.0777 121.696 22.1632Z" fill="#FFC3BD"/>
<path d="M125.26 30.1023C125.66 29.7418 124.86 28.2838 124.368 28.0795C123.08 27.5387 117.812 28.0795 115.832 29.7819C115.668 30.0628 115.569 30.3771 115.542 30.7015C115.515 31.0259 115.561 31.3522 115.676 31.6565L125.26 30.1023Z" fill="white"/>
<path d="M142.036 137.177C141.772 137.294 141.473 137.303 141.204 137.201C141.151 137.159 141.112 137.102 141.093 137.038C141.074 136.973 141.075 136.904 141.096 136.84C141.106 136.788 141.128 136.738 141.16 136.696C141.192 136.653 141.233 136.617 141.28 136.592C141.712 136.34 142.78 136.672 142.824 136.684C142.839 136.689 142.852 136.698 142.862 136.71C142.872 136.722 142.878 136.737 142.88 136.752C142.881 136.767 142.879 136.783 142.871 136.796C142.864 136.81 142.853 136.821 142.84 136.828C142.584 136.972 142.315 137.088 142.036 137.177ZM141.452 136.688L141.36 136.728C141.332 136.742 141.308 136.763 141.289 136.788C141.27 136.813 141.257 136.842 141.252 136.872C141.224 137.017 141.28 137.057 141.296 137.073C141.488 137.209 142.14 137.013 142.592 136.784C142.223 136.668 141.834 136.636 141.452 136.688Z" fill="#335199"/>
<path d="M142.824 136.836H142.8C142.4 136.756 141.564 136.251 141.52 135.875C141.514 135.816 141.529 135.756 141.562 135.707C141.594 135.657 141.643 135.621 141.7 135.602C141.755 135.579 141.815 135.566 141.876 135.566C141.936 135.566 141.996 135.579 142.052 135.602C142.516 135.791 142.876 136.692 142.888 136.728C142.896 136.74 142.9 136.754 142.9 136.768C142.9 136.782 142.896 136.796 142.888 136.808C142.881 136.819 142.872 136.827 142.86 136.832C142.849 136.838 142.836 136.839 142.824 136.836ZM141.784 135.739H141.748C141.656 135.783 141.66 135.831 141.664 135.851C141.688 136.075 142.256 136.476 142.66 136.628C142.54 136.368 142.26 135.863 141.976 135.743C141.914 135.718 141.846 135.717 141.784 135.739Z" fill="#335199"/>
<path d="M118.592 141.479C118.164 141.479 117.752 141.419 117.612 141.226C117.576 141.176 117.557 141.115 117.557 141.052C117.557 140.99 117.576 140.929 117.612 140.878C117.639 140.832 117.675 140.792 117.718 140.761C117.76 140.729 117.809 140.706 117.86 140.694C118.416 140.541 119.584 141.21 119.632 141.238C119.647 141.246 119.659 141.257 119.667 141.272C119.674 141.287 119.677 141.303 119.674 141.32C119.672 141.336 119.664 141.351 119.652 141.362C119.64 141.373 119.625 141.381 119.608 141.383C119.273 141.445 118.933 141.477 118.592 141.479ZM118.064 140.83C118.014 140.823 117.963 140.823 117.912 140.83C117.88 140.837 117.85 140.851 117.823 140.87C117.796 140.889 117.773 140.914 117.756 140.942C117.7 141.042 117.72 141.09 117.756 141.118C117.912 141.335 118.756 141.339 119.356 141.25C118.957 141.028 118.518 140.885 118.064 140.83Z" fill="#335199"/>
<path d="M119.6 141.399H119.568C119.168 141.218 118.368 140.493 118.428 140.117C118.428 140.029 118.508 139.917 118.724 139.897C118.802 139.888 118.881 139.895 118.956 139.919C119.031 139.942 119.101 139.981 119.16 140.033C119.588 140.381 119.676 141.279 119.68 141.319C119.682 141.332 119.68 141.347 119.675 141.359C119.669 141.372 119.66 141.383 119.648 141.391C119.633 141.397 119.616 141.4 119.6 141.399ZM118.8 140.041H118.752C118.608 140.041 118.6 140.113 118.596 140.129C118.56 140.357 119.104 140.93 119.512 141.17C119.476 140.79 119.322 140.43 119.072 140.141C118.998 140.072 118.901 140.032 118.8 140.029V140.041Z" fill="#335199"/>
<path d="M123.273 141.307H119.933L119.601 133.568H122.941L123.273 141.307Z" fill="#FFC3BD"/>
<path d="M146.732 136.023L143.656 137.085L140.464 129.786L143.54 128.725L146.732 136.023Z" fill="#FFC3BD"/>
<path d="M142.925 136.319L146.525 135.218C146.588 135.198 146.657 135.201 146.719 135.226C146.78 135.251 146.832 135.296 146.865 135.354L148.365 137.998C148.401 138.062 148.422 138.134 148.426 138.208C148.43 138.282 148.418 138.356 148.39 138.425C148.362 138.493 148.319 138.555 148.264 138.604C148.209 138.654 148.144 138.69 148.073 138.711C146.813 139.071 146.185 139.187 144.609 139.668C143.637 139.969 141.189 140.898 139.809 141.174C138.429 141.451 137.985 140.125 138.521 139.888C140.921 138.831 141.905 137.625 142.477 136.684C142.575 136.511 142.735 136.381 142.925 136.319Z" fill="#263238"/>
<path d="M119.956 140.918H123.6C123.666 140.919 123.73 140.942 123.781 140.983C123.832 141.025 123.869 141.082 123.884 141.146L124.544 144.118C124.56 144.19 124.56 144.265 124.543 144.336C124.527 144.408 124.494 144.475 124.448 144.532C124.402 144.589 124.343 144.635 124.276 144.666C124.21 144.697 124.137 144.713 124.064 144.711C122.748 144.687 120.864 144.611 119.196 144.611C117.264 144.611 116.452 144.719 114.184 144.719C112.816 144.719 112.436 143.329 113.008 143.205C115.62 142.632 116.896 142.572 119.152 141.178C119.39 141.018 119.669 140.928 119.956 140.918Z" fill="#263238"/>
<path d="M129.656 31.1997C130.628 32.093 131.468 32.9862 132.34 33.9195C133.212 34.8528 134.02 35.8182 134.804 36.8476C135.622 37.8935 136.366 38.9965 137.028 40.1483C137.389 40.7831 137.702 41.4446 137.964 42.1271C138.032 42.3153 138.1 42.4916 138.156 42.6999C138.221 42.9051 138.276 43.1137 138.32 43.3247L138.388 43.6572L138.436 44.0257C138.48 44.3647 138.48 44.7082 138.436 45.0472C138.343 45.6844 138.108 46.2924 137.748 46.8257C137.484 47.2149 137.175 47.5712 136.828 47.8872C136.268 48.3951 135.657 48.8423 135.004 49.221C133.853 49.8808 132.649 50.4409 131.404 50.8954C129.043 51.7749 126.61 52.4451 124.132 52.8982L123.432 50.4948C125.604 49.5535 127.804 48.5361 129.832 47.4465C130.819 46.9293 131.769 46.3444 132.676 45.6961C133.052 45.4262 133.4 45.1174 133.712 44.7748C133.807 44.6726 133.887 44.5565 133.948 44.4303C133.98 44.3622 133.948 44.3702 133.908 44.5184C133.88 44.7868 133.884 44.5785 133.82 44.4343C133.8 44.3622 133.764 44.2741 133.728 44.182C133.692 44.0898 133.648 43.9977 133.604 43.9016C133.388 43.4642 133.146 43.0402 132.88 42.6318C132.263 41.7125 131.595 40.8286 130.88 39.9841C130.144 39.1068 129.368 38.2416 128.572 37.3844C127.776 36.5272 126.94 35.674 126.172 34.8809L129.656 31.1997Z" fill="#FFC3BD"/>
<path d="M124.348 50.1184L121.2 51.0717L123.224 54.4044C123.224 54.4044 125.084 53.6353 125.496 52.0531L124.348 50.1184Z" fill="#FFC3BD"/>
<path d="M119.928 52.2494L121.168 55.0013L123.204 54.4045L121.18 51.0718L119.928 52.2494Z" fill="#FFC3BD"/>
<path d="M122.28 32.105C121.98 35.3095 128.748 40.2644 128.748 40.2644L135.264 35.8022C134.133 33.7124 132.479 31.9526 130.464 30.695C126.728 28.2956 122.656 28.1234 122.28 32.105Z" fill="#335199"/>
<g opacity="0.3">
<path opacity="0.3" d="M122.28 32.105C121.98 35.3095 128.748 40.2644 128.748 40.2644L135.264 35.8022C134.133 33.7124 132.479 31.9526 130.464 30.695C126.728 28.2956 122.656 28.1234 122.28 32.105Z" fill="white"/>
</g>
<path d="M111.2 31.8487C111.2 31.8487 108.276 36.339 115.22 60.4489L132.876 57.8372C132.628 55.3938 129.676 44.7348 129.576 33.0784C129.571 32.5161 129.453 31.9605 129.228 31.4451C129.003 30.9297 128.677 30.4653 128.268 30.0798C127.859 29.6943 127.376 29.3957 126.849 29.2019C126.322 29.0082 125.761 28.9234 125.2 28.9526C124.688 28.9807 124.16 29.0167 123.636 29.0688C121.115 29.2939 118.61 29.6643 116.132 30.1784C114.447 30.6054 112.798 31.1639 111.2 31.8487Z" fill="#335199"/>
<g opacity="0.3">
<path opacity="0.3" d="M111.2 31.8487C111.2 31.8487 108.276 36.339 115.22 60.4489L132.876 57.8372C132.628 55.3938 129.676 44.7348 129.576 33.0784C129.571 32.5161 129.453 31.9605 129.228 31.4451C129.003 30.9297 128.677 30.4653 128.268 30.0798C127.859 29.6943 127.376 29.3957 126.849 29.2019C126.322 29.0082 125.761 28.9234 125.2 28.9526C124.688 28.9807 124.16 29.0167 123.636 29.0688C121.115 29.2939 118.61 29.6643 116.132 30.1784C114.447 30.6054 112.798 31.1639 111.2 31.8487Z" fill="white"/>
</g>
<path opacity="0.2" d="M110.769 39.5915L110.829 39.5234L114.981 39.896C115.613 42.5797 113.301 46.2409 112.081 47.9353C111.493 45.1799 111.055 42.3945 110.769 39.5915Z" fill="black"/>
<path opacity="0.2" d="M119.601 133.568L119.773 137.557H123.113L122.941 133.568H119.601Z" fill="black"/>
<path opacity="0.2" d="M143.54 128.729L140.464 129.79L142.112 133.552L145.188 132.49L143.54 128.729Z" fill="black"/>
<path d="M121.26 17.3722C121.996 20.6048 122.588 22.4594 121.464 24.5583C119.776 27.7188 115.432 27.4184 113.748 24.4702C112.232 21.8145 111.28 16.9717 114.016 14.7966C114.617 14.3134 115.331 13.992 116.09 13.8631C116.85 13.7342 117.63 13.8021 118.356 14.0602C119.082 14.3183 119.73 14.7582 120.238 15.3379C120.746 15.9176 121.098 16.6179 121.26 17.3722Z" fill="#FFC3BD"/>
<path d="M114.776 20.5407L113.548 21.2938L113.664 17.0879C112.873 17.1219 112.092 16.8954 111.44 16.443C111.884 16.0224 118.8 13.595 120.952 14.0196C121.176 13.9274 121.448 13.5068 121.448 13.5068C121.448 13.5068 121.532 14.0356 121.168 14.2359C121.432 14.1838 122.092 14.308 122.276 14.7005C121.974 14.6177 121.652 14.636 121.36 14.7526C121.36 14.7526 123.76 15.1171 122.908 18.4498C121.952 22.1189 122.268 24.2339 122.268 24.2339C122.268 24.2339 120.484 25.6159 118.932 25.3595C117.276 23.5289 114.884 21.3338 114.776 20.5407Z" fill="#263238"/>
<path d="M112.424 16.1066C110.476 16.1066 109.776 15.1573 109.276 14.3562C110.676 14.204 113.592 13.3027 115.756 13.1545C117.92 13.0063 120.292 13.4028 119.576 14.3562C118.86 15.3095 112.424 16.1066 112.424 16.1066Z" fill="#263238"/>
<path d="M112.852 15.2414C111.252 15.017 109.692 13.5029 110.892 12.0569C111.336 13.1224 114.332 12.9982 116.46 12.5536C119.26 11.9688 121.2 12.9141 120.208 14.8248C119.664 15.8702 112.852 15.2414 112.852 15.2414Z" fill="#263238"/>
<path d="M116.504 19.5834C116.733 20.3743 116.697 21.2188 116.4 21.9868C116 22.9962 115.112 22.7879 114.648 21.9187C114.248 21.1376 113.944 19.6676 114.624 18.9425C115.304 18.2175 116.216 18.6341 116.504 19.5834Z" fill="#FFC3BD"/>
<path d="M121.484 59.5235C121.484 59.5235 124.348 83.9579 126.428 93.5033C128.704 103.978 139.932 132.55 139.932 132.55L145.532 130.611C145.532 130.611 138.332 109.101 136.42 94.4526C134.952 83.2008 132.86 57.8372 132.86 57.8372L121.484 59.5235Z" fill="#263238"/>
<path d="M138.5 130.756C138.472 130.756 139.648 133.159 139.648 133.159L146.188 131.032L145.42 129.077L138.5 130.756Z" fill="#335199"/>
<path opacity="0.3" d="M123.064 72.0491C123.96 78.8306 125.108 86.8699 126.116 92.0011C127.6 84.118 127.948 74.2081 123.064 72.0491Z" fill="black"/>
<path d="M115.22 60.449C115.22 60.449 112.844 83.3852 113.22 93.5755C113.596 104.174 118.54 136.784 118.54 136.784H124.192C124.192 136.784 123.152 104.791 123.392 94.3846C123.668 83.0327 127.916 58.5703 127.916 58.5703L115.22 60.449Z" fill="#263238"/>
<path d="M117.44 134.533C117.416 134.533 117.76 136.88 117.76 136.88H124.636L124.824 134.785L117.44 134.533Z" fill="#335199"/>
<path d="M114.124 37.4807C113.5 38.4741 112.868 39.3674 112.212 40.2847C111.556 41.2019 110.868 42.0872 110.168 42.9684C108.741 44.7561 107.195 46.445 105.54 48.0235C105.092 48.4241 104.68 48.8247 104.196 49.1892L103.844 49.4696L103.668 49.6138C103.604 49.6658 103.576 49.6899 103.444 49.786C103.049 50.0718 102.613 50.2972 102.152 50.4549C101.438 50.6969 100.693 50.8319 99.94 50.8555C99.3027 50.8756 98.6648 50.8462 98.032 50.7674C95.7185 50.4637 93.4614 49.8241 91.332 48.8687L92.024 46.4653C94.0706 46.7085 96.1316 46.8075 98.192 46.7618C98.6478 46.7379 99.1018 46.6884 99.552 46.6135C99.8909 46.562 100.22 46.4594 100.528 46.3091C100.624 46.253 100.676 46.205 100.664 46.193C100.652 46.1809 100.716 46.1409 100.752 46.1048L100.888 45.9767L101.156 45.7283C101.516 45.4079 101.856 45.0193 102.208 44.6668C102.9 43.9218 103.588 43.1567 104.24 42.3435C104.892 41.5304 105.552 40.7093 106.192 39.8721C106.832 39.0349 107.452 38.1777 108.076 37.3205C108.7 36.4633 109.308 35.574 109.884 34.7449L114.124 37.4807Z" fill="#FFC3BD"/>
<path d="M116.448 36.4191C117.792 40.8252 109.988 45.7081 109.988 45.7081L104.916 39.255C106.06 37.1226 107.472 35.1452 109.116 33.3708C112.568 29.5935 115.424 33.0663 116.448 36.4191Z" fill="#335199"/>
<g opacity="0.3">
<path opacity="0.3" d="M116.448 36.4191C117.792 40.8252 109.988 45.7081 109.988 45.7081L104.916 39.255C106.06 37.1226 107.472 35.1452 109.116 33.3708C112.568 29.5935 115.424 33.0663 116.448 36.4191Z" fill="white"/>
</g>
<path d="M93.1998 46.6174L89.0918 45.8604L89.5238 49.4214C89.5238 49.4214 91.6598 50.623 93.2078 48.7444L93.1998 46.6174Z" fill="#FFC3BD"/>
<path d="M87.5078 46.6655L88.3958 49.2331L89.5158 49.4214L89.0838 45.8604L87.5078 46.6655Z" fill="#FFC3BD"/>
</g>
<defs>
<clipPath id="clip0">
<rect width="200" height="149.254" fill="white"/>
</clipPath>
</defs>
</svg>
