<svg width="118" height="181" viewBox="0 0 118 181" fill="none" xmlns="http://www.w3.org/2000/svg">
<path fill-rule="evenodd" clip-rule="evenodd" d="M55.7028 180.931C66.8998 180.931 75.9768 178.471 75.9768 175.436C75.9768 172.401 66.8998 169.94 55.7028 169.94C44.5057 169.94 35.4287 172.401 35.4287 175.436C35.4287 178.471 44.5057 180.931 55.7028 180.931Z" fill="#EAEFF4"/>
<path fill-rule="evenodd" clip-rule="evenodd" d="M56.7896 164.845H61.4484V174.128H53.209C53.209 174.128 55.1563 171.592 56.1252 170.095C56.813 169.032 56.7896 164.845 56.7896 164.845Z" fill="#FFDFAE"/>
<path fill-rule="evenodd" clip-rule="evenodd" d="M47.2334 173.584C46.7432 173.848 46.8868 175.795 46.8868 175.795C46.8868 175.795 61.1497 176.247 61.7527 175.77C62.2473 175.379 61.7838 171.026 61.7838 171.026C57.8273 170.455 57.5645 172.763 56.4868 172.59C55.8061 172.482 55.767 170.679 55.0957 170.523C54.3344 170.347 49.4541 172.389 47.2334 173.584Z" fill="#814C74"/>
<path fill-rule="evenodd" clip-rule="evenodd" d="M56.1514 167.497L61.6069 167.623L61.299 131.118L70.6179 95.0901H49.3858L48.8359 132.161L56.1514 167.497Z" fill="#1B3045"/>
<path fill-rule="evenodd" clip-rule="evenodd" d="M55.8574 164.448H63.045L61.7879 167.753H55.8574V164.448Z" fill="#8F97B9"/>
<path fill-rule="evenodd" clip-rule="evenodd" d="M103.33 119.766L100.529 116.027L107.915 110.446L112.869 117.057C112.869 117.057 109.681 117.019 107.907 117.143C106.647 117.23 103.33 119.766 103.33 119.766Z" fill="#FFDFAE"/>
<path fill-rule="evenodd" clip-rule="evenodd" d="M116.033 122.178C116.538 122.414 118 121.128 118 121.128C118 121.128 109.784 109.411 109.042 109.214C108.434 109.053 105.249 112.041 105.249 112.041C107.173 115.559 109.168 114.382 109.679 115.351C110.002 115.962 108.592 117.076 108.871 117.71C109.187 118.427 113.746 121.116 116.033 122.178Z" fill="#814C74"/>
<path fill-rule="evenodd" clip-rule="evenodd" d="M105.826 118.684L102.646 114.231L82.1442 122.892L81.308 95.9792L63.998 99.2885L70.198 133.714C70.2985 135.752 71.4988 137.571 73.3277 138.459C75.1566 139.347 77.3222 139.161 78.9744 137.974L105.826 118.684Z" fill="#1E354D"/>
<path fill-rule="evenodd" clip-rule="evenodd" d="M103.577 120.752L99.2549 114.984L102.641 114.006L106.207 118.765L103.577 120.752Z" fill="#8F97B9"/>
<path fill-rule="evenodd" clip-rule="evenodd" d="M73.3256 21.5994H80.1727V35.3528L70.2783 34.8298L73.3256 21.5994Z" fill="#F4CA92"/>
<path fill-rule="evenodd" clip-rule="evenodd" d="M86.9282 98.5282C86.9282 98.5282 77.3073 74.3522 85.6775 49.4368C88.3839 41.3806 83.0266 31.3335 80.6316 31.3335L70.849 31.0537C70.849 31.0537 54.6362 39.9847 59.4106 46.4688C72.4112 64.1232 48.0381 96.8045 48.0381 96.8045C48.0381 99.2454 86.9282 100.97 86.9282 98.5282Z" fill="#009FB7"/>
<path fill-rule="evenodd" clip-rule="evenodd" d="M64.8649 14.9917C64.4234 13.4939 63.025 11.0898 64.1288 8.07533C67.3174 -0.630387 78.945 -2.99675 83.2441 4.4509C83.6209 5.10455 86.8093 0.736971 91.4154 5.51962C96.0215 10.3023 93.2711 17.4515 100.037 17.8488C104.739 18.1249 104.011 27.7505 106.658 27.546C112.037 27.1304 115.718 36.1093 110.658 38.7671C92.7258 48.1872 92.9327 30.1781 92.3811 30.2475C80.03 31.7978 80.3109 22.7665 80.3109 22.7665C76.5332 23.8896 64.8649 14.9917 64.8649 14.9917Z" fill="#694A52"/>
<path fill-rule="evenodd" clip-rule="evenodd" d="M64.7001 15.2909C66.5546 23.3227 70.4095 30.4462 73.8235 29.0434C75.4598 28.3706 80.1696 26.2794 81.0744 22.1833C81.7617 19.0725 81.9589 18.5559 81.8279 15.9645C81.7653 14.7258 79.3078 19.6382 79.7822 17.9112C81.8542 10.3624 72.2888 12.8877 71.8838 12.9954C67.1558 14.2558 64.0662 12.006 64.281 13.3359C64.353 13.7804 64.493 14.3922 64.7001 15.2909Z" fill="#FFDFAE"/>
<path fill-rule="evenodd" clip-rule="evenodd" d="M38.1545 96.5686C36.746 99.0588 35.9029 101.831 35.6853 104.686C35.4386 107.486 35.6709 110.303 36.1034 113.094C36.993 118.691 38.717 124.163 40.2229 129.821C40.6036 131.238 40.9432 132.678 41.2385 134.158C41.5104 135.635 41.7512 137.186 41.6765 138.837C41.5963 140.439 41.2983 142.162 40.3019 143.695C39.8003 144.477 39.1261 145.133 38.3316 145.611C37.5348 146.078 36.637 146.344 35.7153 146.385C33.9645 146.456 32.2574 145.826 30.9674 144.635C30.3398 144.061 29.8348 143.364 29.4829 142.588C29.1375 141.821 28.9615 140.989 28.9669 140.147C28.9724 138.484 29.6499 136.982 30.5411 135.776C31.4325 134.589 32.5089 133.554 33.7288 132.711C32.7405 133.755 31.8945 134.926 31.2128 136.193C30.5773 137.44 30.2233 138.808 30.388 140.07C30.5434 141.304 31.2029 142.418 32.2085 143.143C33.1561 143.858 34.3408 144.179 35.5176 144.041C36.5884 143.9 37.5245 143.245 38.0285 142.286C38.5619 141.321 38.7699 140.066 38.7541 138.779C38.702 137.438 38.5064 136.107 38.1706 134.808C37.8654 133.441 37.4688 132.064 37.0938 130.672C35.5492 125.117 33.8896 119.391 33.4394 113.401C33.2154 110.418 33.307 107.357 34.0067 104.406C34.6986 101.468 36.0729 98.6455 38.1545 96.5686Z" fill="#BBC0D6"/>
<path fill-rule="evenodd" clip-rule="evenodd" d="M42.1408 97.4214C40.8673 100.891 40.1707 104.548 40.0788 108.244C40 111.871 40.5403 115.54 41.9133 118.803C42.2554 119.6 42.6808 120.358 43.1822 121.064C43.6312 121.743 44.2292 122.309 44.9303 122.719C45.579 123.099 46.3412 123.234 47.0802 123.101C47.8365 122.929 48.5075 122.493 48.9732 121.87C49.4782 121.222 49.7827 120.44 49.8488 119.619C49.9076 118.77 49.7262 117.92 49.3254 117.17C48.8924 116.388 48.3009 115.706 47.589 115.168C46.8505 114.609 46.0471 114.143 45.1965 113.78C46.1195 113.99 47.007 114.335 47.8312 114.803C48.6905 115.281 49.4301 115.95 49.9936 116.758C50.583 117.607 50.904 118.614 50.9146 119.648C50.9283 120.711 50.6201 121.753 50.031 122.636C49.4192 123.563 48.4991 124.241 47.4353 124.549C46.8882 124.7 46.3167 124.741 45.7539 124.668C45.203 124.591 44.6688 124.423 44.1731 124.169C43.2351 123.675 42.4164 122.98 41.7747 122.134C41.1648 121.337 40.6511 120.471 40.244 119.553C39.4506 117.765 38.9182 115.872 38.6632 113.931C38.3996 112.017 38.3553 110.078 38.5313 108.154C38.8599 104.337 40.0979 100.656 42.1408 97.4214V97.4214Z" fill="#BBC0D6"/>
<path fill-rule="evenodd" clip-rule="evenodd" d="M31.3737 106.954C30.7079 109.48 30.6832 111.993 30.9366 114.486C31.1945 116.988 31.7519 119.444 32.0857 122.074C32.1738 122.756 32.2101 123.444 32.1943 124.132C32.2026 124.94 31.9918 125.735 31.5847 126.431C31.4578 126.629 31.3051 126.808 31.1306 126.965C31.053 127.035 30.9707 127.1 30.8843 127.159L30.6552 127.324C30.3301 127.545 29.9773 127.722 29.6059 127.849C28.8006 128.135 27.9127 128.069 27.158 127.668C26.4679 127.277 25.9357 126.656 25.6535 125.912C24.8437 123.901 25.5494 121.594 27.3443 120.387C26.5256 121.323 26.1118 122.549 26.1942 123.792C26.2406 124.36 26.4099 124.911 26.6902 125.407C26.9345 125.851 27.3129 126.205 27.7706 126.419C28.1885 126.582 28.6557 126.56 29.0563 126.358C29.2852 126.257 29.4999 126.126 29.6951 125.969L29.8476 125.841C29.8927 125.807 29.9343 125.769 29.9718 125.727C30.0322 125.664 30.0835 125.592 30.1244 125.515C30.3181 125.068 30.4048 124.582 30.3776 124.095C30.3659 123.494 30.32 122.895 30.2401 122.299C29.912 119.823 29.419 117.214 29.4497 114.558C29.4431 111.924 29.9544 109.165 31.3737 106.954Z" fill="#BBC0D6"/>
<path fill-rule="evenodd" clip-rule="evenodd" d="M42.1035 127.035C43.364 127.919 44.3871 129.102 45.0818 130.479C45.4451 131.168 45.7352 131.895 45.9471 132.645C46.1686 133.387 46.3317 134.145 46.4351 134.912C46.6344 136.407 46.7416 137.912 46.7559 139.419C46.8049 140.872 46.8459 142.337 47.2658 143.463C47.5068 144.026 47.877 144.523 48.3463 144.915C48.7827 145.3 49.3287 145.537 49.9069 145.594C51.0662 145.699 52.3189 144.961 53.1615 143.938C53.5923 143.422 53.9132 142.823 54.1045 142.177C54.309 141.538 54.3243 140.853 54.1487 140.205C53.9472 139.54 53.5534 138.95 53.0174 138.511C52.4499 138.049 51.8106 137.684 51.125 137.431C51.8706 137.556 52.5861 137.82 53.2341 138.211C53.9203 138.623 54.4609 139.24 54.7803 139.976C55.0889 140.741 55.1704 141.579 55.0149 142.389C54.8579 143.19 54.5389 143.95 54.0777 144.622C53.6199 145.313 53.022 145.899 52.323 146.341C51.5857 146.82 50.7268 147.075 49.8487 147.077C48.9392 147.063 48.0599 146.747 47.3472 146.18C47.0063 145.916 46.6965 145.614 46.4239 145.28C46.1384 144.943 45.8942 144.572 45.6965 144.176C45.3498 143.415 45.1293 142.603 45.0438 141.771C44.956 141.008 44.9064 140.241 44.8953 139.472C44.8552 137.973 44.8841 136.521 44.7904 135.091C44.7354 134.378 44.6667 133.671 44.559 132.97C44.4426 132.271 44.2803 131.581 44.0733 130.904C43.8578 130.22 43.5866 129.556 43.2625 128.917C42.9193 128.264 42.5321 127.635 42.1035 127.035Z" fill="#BBC0D6"/>
<path fill-rule="evenodd" clip-rule="evenodd" d="M40.0186 91.6507L71.2727 89.8901V62.1594L40.0186 63.92V91.6507Z" fill="#D8984D"/>
<path fill-rule="evenodd" clip-rule="evenodd" d="M40.0189 63.9609L71.273 62.1746L42.7156 52.2605L11.4619 54.0468L40.0189 63.9609Z" fill="#B27833"/>
<path fill-rule="evenodd" clip-rule="evenodd" d="M11.4665 54.0495L42.7206 52.2632L36.1663 45.1768L4.91211 46.9633L11.4665 54.0495Z" fill="#D8984D"/>
<path fill-rule="evenodd" clip-rule="evenodd" d="M71.2696 62.1762L77.1464 52.4241L48.589 42.5103L42.7119 52.2621L71.2696 62.1762Z" fill="#D8984D"/>
<path fill-rule="evenodd" clip-rule="evenodd" d="M11.4541 78.4003L40.0472 91.6717L40.0152 63.9509L11.464 54.0007L11.4541 78.4003Z" fill="#F9B25F"/>
<path fill-rule="evenodd" clip-rule="evenodd" d="M25.6027 66.3809L40.0427 63.9584L11.5558 54.0471L0 55.5928L25.6027 66.3809Z" fill="#D8984D"/>
<path fill-rule="evenodd" clip-rule="evenodd" d="M32.1726 102.406L40.0388 91.6122L11.3485 78.3406L6.125 88.1021L32.1726 102.406Z" fill="#D8984D"/>
<path fill-rule="evenodd" clip-rule="evenodd" d="M40.0563 63.9918L71.3105 62.2055L65.4535 55.8608L34.1982 57.6472L40.0563 63.9918Z" fill="#F9B25F"/>
<path fill-rule="evenodd" clip-rule="evenodd" d="M45.8211 97.9459L76.2727 95.4243L71.218 89.8152L39.9639 91.6015L45.8211 97.9459Z" fill="#F9B25F"/>
<path fill-rule="evenodd" clip-rule="evenodd" d="M27.4634 136.85C26.6423 138.645 26.7161 140.65 27.219 142.449C27.7101 144.254 28.7756 145.848 30.253 146.988C31.711 148.105 33.5978 148.539 35.4659 148.415C36.4151 148.355 37.3545 148.188 38.2658 147.915C39.1979 147.647 40.1138 147.325 41.009 146.952C40.1919 147.502 39.3229 147.97 38.4147 148.349C37.955 148.539 37.4861 148.704 37.0096 148.845C36.5252 148.976 36.0327 149.075 35.5354 149.14C34.5238 149.283 33.4951 149.245 32.4968 149.028C31.4865 148.794 30.5343 148.355 29.6986 147.739C28.058 146.476 26.9276 144.659 26.5154 142.624C26.302 141.634 26.2599 140.614 26.3908 139.609C26.517 138.614 26.8855 137.667 27.4634 136.85Z" fill="#BBC0D6"/>
<path fill-rule="evenodd" clip-rule="evenodd" d="M48.5295 79.7522C51.824 79.7522 54.4946 77.8984 54.4946 75.6117C54.4946 73.325 51.824 71.4712 48.5295 71.4712C45.2351 71.4712 42.5645 73.325 42.5645 75.6117C42.5645 77.8984 45.2351 79.7522 48.5295 79.7522Z" fill="#F7E0A6"/>
<path fill-rule="evenodd" clip-rule="evenodd" d="M54.358 78.0011C54.358 78.0011 63.9919 77.679 73.8558 72.3126C84.7764 66.3722 85.4192 48.2694 83.3718 33.6951C82.8483 29.9722 74.9283 31.2197 74.9283 31.2197C74.9283 31.2197 70.8755 55.1331 72.9832 63.3421L53.5596 72.6253L54.358 78.0011Z" fill="#CFD1F0"/>
</svg>
