<svg width="16" height="16" viewBox="0 0 16 16" fill="none" xmlns="http://www.w3.org/2000/svg">
<path fill-rule="evenodd" clip-rule="evenodd" d="M10.0589 6.77944C10.0589 8.59063 8.59063 10.0589 6.77944 10.0589C4.96826 10.0589 3.5 8.59063 3.5 6.77944C3.5 4.96826 4.96826 3.5 6.77944 3.5C8.59063 3.5 10.0589 4.96826 10.0589 6.77944ZM9.58708 10.6477C8.79881 11.2208 7.8286 11.5589 6.77944 11.5589C4.13983 11.5589 2 9.41905 2 6.77944C2 4.13983 4.13983 2 6.77944 2C9.41905 2 11.5589 4.13983 11.5589 6.77944C11.5589 7.82859 11.2208 8.79878 10.6477 9.58704L14.001 12.9403L12.9403 14.001L9.58708 10.6477Z" fill="#04151F"/>
</svg>
