<svg width="200" height="160" viewBox="0 0 200 160" fill="none" xmlns="http://www.w3.org/2000/svg">
<g opacity="0.4" clip-path="url(#clip0)">
<path d="M150.039 17.9023C153.596 17.9023 156.479 15.0192 156.479 11.4626C156.479 7.9061 153.596 5.02295 150.039 5.02295C146.483 5.02295 143.6 7.9061 143.6 11.4626C143.6 15.0192 146.483 17.9023 150.039 17.9023Z" fill="#2F2E41"/>
<path d="M145.488 15.3918C145.488 15.3918 144.557 27.1216 143.439 27.1216C142.321 27.1216 156.479 26.5696 156.479 26.5696C156.479 26.5696 150.518 18.8417 153.499 16.3578C156.479 13.8738 145.488 15.3918 145.488 15.3918Z" fill="#9F616A"/>
<path opacity="0.1" d="M145.488 15.3918C145.488 15.3918 144.557 27.1216 143.439 27.1216C142.321 27.1216 156.479 26.5696 156.479 26.5696C156.479 26.5696 150.518 18.8417 153.499 16.3578C156.479 13.8738 145.488 15.3918 145.488 15.3918Z" fill="black"/>
<path d="M119.439 150.268C106.484 150.268 93.9297 145.776 83.9153 137.558C73.9009 129.339 67.0459 117.902 64.5185 105.196C61.991 92.4902 63.9474 79.3008 70.0544 67.8754C76.1613 56.4501 86.0409 47.4956 98.0098 42.5379C109.979 37.5802 123.296 36.9259 135.694 40.6866C148.091 44.4472 158.801 52.3901 165.998 63.1618C173.196 73.9335 176.435 86.8677 175.166 99.7604C173.896 112.653 168.195 124.707 159.034 133.867C153.847 139.083 147.676 143.219 140.88 146.034C134.083 148.849 126.796 150.288 119.439 150.268ZM119.439 38.8562C88.8827 38.8562 64.0233 63.7156 64.0233 94.272C64.0233 124.828 88.8827 149.688 119.439 149.688C149.996 149.688 174.855 124.828 174.855 94.272C174.855 63.7156 149.996 38.8562 119.439 38.8562Z" fill="#3F3D56"/>
<path d="M162.215 41.0557L155.706 42.9183L164.798 42.5035C166.842 42.3925 168.85 43.0683 170.411 44.3922C172.031 45.7945 173.337 48.0189 172.079 51.3071C169.565 57.8835 165.696 64.0731 165.696 64.0731L163.182 68.9086C163.182 68.9086 157.959 69.6823 157.766 68.135C157.573 66.5876 157.766 65.8139 158.733 65.0402C159.7 64.2665 160.281 62.7191 160.281 61.9454C160.281 61.1717 160.087 60.398 160.667 60.0112C161.248 59.6243 161.441 59.044 161.441 57.8835C161.441 56.723 164.796 51.6223 164.796 51.6223C164.796 51.6223 157.766 49.1795 154.738 51.2355C151.711 53.2915 145.58 62.3322 145.58 62.3322C145.178 62.753 144.841 63.2316 144.581 63.7523C144.27 64.3566 143.84 64.8916 143.317 65.3248C142.754 65.8191 143.272 67.1806 143.453 67.3613C143.646 67.5547 145.58 75.2916 145.58 75.2916C145.58 75.2916 147.708 78.9667 145.387 79.1601C143.066 79.3535 140.938 79.5469 140.745 79.1601C140.53 78.6239 140.271 78.1064 139.971 77.6127C139.391 76.6456 139.971 74.5179 139.971 74.5179C139.971 74.5179 134.362 67.3613 136.103 62.9125C137.843 58.4638 141.518 48.4058 141.518 48.4058L147.128 46.0847L157.379 42.4096L162.215 41.0557Z" fill="#2F2E41"/>
<path d="M123.144 20.1658L115.214 18.6184C115.214 18.6184 113.28 12.042 110.958 12.8157C108.637 13.5894 112.506 20.1658 112.506 20.1658L123.531 25.1948L123.144 20.1658Z" fill="#A0616A"/>
<path d="M171.306 26.7422L174.788 31.1909C174.788 31.1909 179.817 30.9975 178.269 33.7054C176.722 36.4134 173.24 34.866 173.047 34.2857C172.853 33.7054 167.244 28.6764 167.244 28.6764L171.306 26.7422Z" fill="#A0616A"/>
<path d="M153.191 20.8679L148.162 24.7364L145.068 20.0942L121.083 18.7402V26.6706C126.986 24.9663 132.419 24.4383 136.75 26.6706C142.233 33.9713 143.439 41.8991 139.971 50.5126L168.278 40.5971C159.794 37.4379 155.856 32.8579 157.06 26.6706L166.924 30.1522L172.921 25.7035C167.559 22.0954 159.578 19.8324 153.191 20.8679Z" fill="#FC4E2C"/>
<path d="M100 159.351C155.228 159.351 200 155.973 200 151.807C200 147.641 155.228 144.264 100 144.264C44.7715 144.264 0 147.641 0 151.807C0 155.973 44.7715 159.351 100 159.351Z" fill="#3F3D56"/>
<path opacity="0.1" d="M72.0508 156.643C109.386 156.643 139.652 154.391 139.652 151.614C139.652 148.837 109.386 146.585 72.0508 146.585C34.7155 146.585 4.44922 148.837 4.44922 151.614C4.44922 154.391 34.7155 156.643 72.0508 156.643Z" fill="black"/>
<path d="M180.882 141.568C180.238 147.214 183.709 152.247 183.709 152.247C183.709 152.247 188.225 148.125 188.869 142.479C189.514 136.833 186.043 131.8 186.043 131.8C186.043 131.8 181.527 135.922 180.882 141.568Z" fill="#2F2E41"/>
<path d="M183.344 141.277C185.666 146.463 183.881 152.31 183.881 152.31C183.881 152.31 178.329 149.748 176.007 144.562C173.684 139.375 175.47 133.528 175.47 133.528C175.47 133.528 181.021 136.09 183.344 141.277Z" fill="#FC4E2C"/>
<path d="M120.997 151.51C132.968 151.51 142.672 141.806 142.672 129.835C142.672 117.865 132.968 108.161 120.997 108.161C109.027 108.161 99.3232 117.865 99.3232 129.835C99.3232 141.806 109.027 151.51 120.997 151.51Z" fill="#F2F2F2"/>
<path d="M120.998 96.4206L115.658 109.769L96.3508 109.924L90.061 109.975L75.1347 110.095L68.8475 110.146L53.9212 110.266L47.6341 110.316L32.7078 110.439L26.4206 110.49L16.3452 110.57L14.3963 106.581L11.8681 101.416L10.4718 98.5564L9.6709 96.4206L14.463 81.2433C14.9315 79.7604 15.8604 78.4653 17.1147 77.546C18.3691 76.6267 19.8838 76.131 21.439 76.1309H108.626C110.136 76.1317 111.609 76.5996 112.843 77.4705C114.076 78.3413 115.01 79.5724 115.517 80.995L116.072 82.5595L120.998 96.4206Z" fill="#FC4E2C"/>
<path d="M120.998 96.4209H9.6709V124.453H120.998V96.4209Z" fill="#FC4E2C"/>
<path opacity="0.1" d="M120.998 96.4209H9.6709V124.453H120.998V96.4209Z" fill="black"/>
<path d="M122.64 57.916H119.356V61.2H122.64V57.916Z" fill="#3F3D56"/>
<path d="M131.507 128.193H128.223V131.477H131.507V128.193Z" fill="#3F3D56"/>
<path d="M100.842 60.2461H29.5605V149.948H100.842V60.2461Z" fill="#F2F2F2"/>
<path d="M65.3344 66.6533H44.5107V69.59H65.3344V66.6533Z" fill="#3F3D56"/>
<path d="M96.3035 78.667H33.5654V80.0018H96.3035V78.667Z" fill="#E6E6E6"/>
<path d="M96.3035 82.939H33.5654V84.2738H96.3035V82.939Z" fill="#E6E6E6"/>
<path d="M96.3035 87.21H33.5654V88.5448H96.3035V87.21Z" fill="#E6E6E6"/>
<path d="M96.3035 91.4819H33.5654V92.8168H96.3035V91.4819Z" fill="#E6E6E6"/>
<path d="M96.3035 95.7534H33.5654V97.0882H96.3035V95.7534Z" fill="#E6E6E6"/>
<path d="M96.3035 100.024H33.5654V101.359H96.3035V100.024Z" fill="#E6E6E6"/>
<path d="M36.2348 71.993C35.3372 71.993 34.4597 71.7268 33.7133 71.2281C32.967 70.7294 32.3853 70.0206 32.0418 69.1913C31.6983 68.362 31.6084 67.4495 31.7835 66.5691C31.9586 65.6887 32.3909 64.88 33.0256 64.2453C33.6603 63.6106 34.469 63.1783 35.3494 63.0032C36.2298 62.8281 37.1423 62.918 37.9716 63.2615C38.8009 63.605 39.5097 64.1867 40.0084 64.9331C40.5071 65.6794 40.7733 66.5569 40.7733 67.4545C40.7719 68.6578 40.2933 69.8114 39.4425 70.6622C38.5917 71.5131 37.4381 71.9917 36.2348 71.993ZM36.2348 63.4499C35.4428 63.4499 34.6685 63.6848 34.01 64.1248C33.3514 64.5649 32.8382 65.1903 32.5351 65.922C32.232 66.6538 32.1527 67.4589 32.3072 68.2358C32.4617 69.0126 32.8431 69.7261 33.4031 70.2862C33.9632 70.8462 34.6767 71.2276 35.4535 71.3821C36.2303 71.5366 37.0355 71.4573 37.7673 71.1542C38.499 70.8511 39.1244 70.3379 39.5645 69.6793C40.0045 69.0208 40.2393 68.2465 40.2393 67.4545C40.2381 66.3928 39.8158 65.3749 39.0651 64.6242C38.3144 63.8734 37.2965 63.4511 36.2348 63.4499Z" fill="#FC4E2C"/>
<path d="M120.998 152.217H9.6709V96.4204L24.0873 107.633L107.115 107.099L120.998 96.4204V152.217Z" fill="#3F3D56"/>
<path d="M36.2348 139.27H15.4111V142.206H36.2348V139.27Z" fill="#F2F2F2"/>
<path d="M26.3396 133.755C25.8806 133.755 25.4318 133.619 25.0501 133.364C24.6684 133.109 24.3709 132.746 24.1952 132.322C24.0196 131.898 23.9736 131.431 24.0632 130.981C24.1527 130.531 24.3738 130.117 24.6984 129.793C25.023 129.468 25.4366 129.247 25.8868 129.157C26.3371 129.068 26.8038 129.114 27.2279 129.289C27.652 129.465 28.0145 129.763 28.2695 130.144C28.5246 130.526 28.6607 130.975 28.6607 131.434C28.66 132.049 28.4152 132.639 27.9801 133.074C27.545 133.509 26.955 133.754 26.3396 133.755ZM26.3396 129.5C25.9571 129.5 25.5831 129.613 25.265 129.826C24.9469 130.038 24.699 130.34 24.5526 130.694C24.4062 131.047 24.3679 131.436 24.4426 131.811C24.5172 132.186 24.7014 132.531 24.9719 132.802C25.2424 133.072 25.5871 133.256 25.9623 133.331C26.3375 133.406 26.7264 133.367 27.0798 133.221C27.4333 133.074 27.7354 132.827 27.9479 132.508C28.1604 132.19 28.2739 131.816 28.2739 131.434C28.2733 130.921 28.0693 130.429 27.7067 130.067C27.3441 129.704 26.8525 129.5 26.3396 129.5Z" fill="white"/>
<path d="M162.602 67.9415C162.602 67.9415 163.762 72.3902 164.149 72.5836C164.536 72.7771 168.791 76.4521 165.89 77.0324C162.989 77.6127 160.861 77.4192 160.281 76.839C159.701 76.2587 159.894 75.6784 158.927 75.485C157.96 75.2916 156.219 74.7113 156.412 73.3573C156.606 72.0034 157.573 68.3283 158.153 67.9415C158.733 67.5546 162.602 67.9415 162.602 67.9415Z" fill="#2F2E41"/>
<path d="M145.774 77.8062C145.774 77.8062 147.514 79.1601 146.547 81.6746C145.58 84.1891 144.226 86.897 144.226 86.897C144.226 86.897 142.679 91.7326 140.164 90.9589C139.143 90.6446 138.632 89.7876 138.386 88.8808C138.208 88.1955 138.179 87.4801 138.3 86.7826C138.421 86.0851 138.69 85.4216 139.088 84.8363L140.551 82.6417L142.099 78.5798L145.774 77.8062Z" fill="#2F2E41"/>
<path d="M141.528 96.5325C144.996 96.5325 149.286 95.3839 153.466 91.2323C163.7 81.0681 173.423 80.0487 173.52 80.0396L173.484 79.6543C173.385 79.6636 163.525 80.697 153.193 90.9577C147.885 96.2301 142.405 96.5531 138.743 95.8952C136.325 95.456 134.021 94.5276 131.974 93.1669L131.745 93.479C133.836 94.8711 136.189 95.8219 138.66 96.2732C139.606 96.4449 140.566 96.5317 141.528 96.5325Z" fill="#2F2E41"/>
<path d="M168.308 88.1544C169.59 88.1544 170.629 87.1152 170.629 85.8333C170.629 84.5514 169.59 83.5122 168.308 83.5122C167.026 83.5122 165.987 84.5514 165.987 85.8333C165.987 87.1152 167.026 88.1544 168.308 88.1544Z" fill="#2F2E41"/>
<path d="M151.867 98.9859C153.149 98.9859 154.188 97.9467 154.188 96.6648C154.188 95.3829 153.149 94.3438 151.867 94.3438C150.585 94.3438 149.546 95.3829 149.546 96.6648C149.546 97.9467 150.585 98.9859 151.867 98.9859Z" fill="#2F2E41"/>
<path d="M149.517 19.7505C152.081 19.7505 154.159 17.6725 154.159 15.1091C154.159 12.5458 152.081 10.4678 149.517 10.4678C146.954 10.4678 144.876 12.5458 144.876 15.1091C144.876 17.6725 146.954 19.7505 149.517 19.7505Z" fill="#A0616A"/>
<path d="M153.401 0C152.914 0.694992 152.193 1.19084 151.37 1.39629C149.949 1.77661 151.358 3.91094 151.358 3.91094C151.358 3.91094 150.846 3.13482 151.585 2.31289C152.323 1.49096 153.512 0.929023 153.401 0Z" fill="#2F2E41"/>
<path d="M151.106 6.21776C152.097 6.21776 152.901 5.41425 152.901 4.42309C152.901 3.43192 152.097 2.62842 151.106 2.62842C150.115 2.62842 149.312 3.43192 149.312 4.42309C149.312 5.41425 150.115 6.21776 151.106 6.21776Z" fill="#2F2E41"/>
<path d="M153.398 5.92706C151.935 5.37368 149.498 5.0931 148.245 5.2849L148.417 4.02979C149.622 4.65252 152.047 4.94516 153.569 4.67195L153.398 5.92706Z" fill="#3F3D56"/>
<path d="M150.179 7.34326C150.179 7.34326 148.346 10.3932 144.082 11.5349C139.818 12.6766 144.047 19.0838 144.047 19.0838C144.047 19.0838 142.509 16.7539 144.727 14.2865C146.945 11.8191 150.515 10.1322 150.179 7.34326Z" fill="#2F2E41"/>
<path d="M150.326 7.1582C150.326 7.1582 152.087 11.3474 154.021 11.7434C155.955 12.1395 155.808 18.7588 152.784 19.7514C152.784 19.7514 154.989 15.8709 153.104 13.2684C151.219 10.6659 150.029 8.60858 150.326 7.1582Z" fill="#2F2E41"/>
</g>
<defs>
<clipPath id="clip0">
<rect width="200" height="159.351" fill="white"/>
</clipPath>
</defs>
</svg>
