<svg width="24" height="24" viewBox="0 0 24 24" fill="none" xmlns="http://www.w3.org/2000/svg">
<circle opacity="0.15" cx="12" cy="12" r="12" fill="#0D47A1"/>
<path d="M18.6109 6.55555H12.3887V17.4444H18.6109C18.8259 17.4444 18.9998 17.2706 18.9998 17.0555V6.94444C18.9998 6.72938 18.8259 6.55555 18.6109 6.55555Z" fill="#2196F3"/>
<path d="M12.3887 8.50037H17.8331V9.27776H12.3887V8.50037ZM12.3887 10.0555H17.8331V10.8333H12.3887V10.0555ZM12.3887 11.6115H17.8331V12.3893H12.3887V11.6115ZM12.3887 13.167H17.8331V13.9444H12.3887V13.167ZM12.3887 14.7222H17.8331V15.5004H12.3887V14.7222Z" fill="white"/>
<path d="M13.1667 19L5 17.4444V6.55556L13.1667 5V19Z" fill="#0D47A1"/>
<path d="M10.8979 14.7269H9.84129L9.14051 11.2315C9.1024 11.046 9.08023 10.8442 9.07285 10.6186H9.0604C9.04368 10.8664 9.01762 11.0705 8.98379 11.2315L8.26435 14.7269H7.16496L6.05273 9.27696H7.09301L7.69035 12.9045C7.71446 13.0616 7.73351 13.2693 7.74596 13.5295H7.76229C7.76968 13.3358 7.8004 13.1207 7.84901 12.8897L8.61512 9.27657H9.63479L10.329 12.9337C10.3531 13.069 10.3752 13.2627 10.3951 13.5213H10.4071C10.4149 13.321 10.4355 13.1188 10.4693 12.9135L11.0538 9.27657H12.0136L10.8979 14.7269Z" fill="white"/>
</svg>