<svg width="24" height="24" viewBox="0 0 24 24" fill="none" xmlns="http://www.w3.org/2000/svg">
<circle opacity="0.15" cx="12" cy="12" r="12" fill="#E64A19"/>
<path d="M18.6109 6.55553H12.3887V17.4444H18.6109C18.8259 17.4444 18.9998 17.2706 18.9998 17.0555V6.94442C18.9998 6.72936 18.8259 6.55553 18.6109 6.55553Z" fill="#FF8A65"/>
<path d="M12 13.9444H17.4444V14.7222H12V13.9444ZM12 15.5H17.4444V16.2778H12V15.5ZM14.3333 8.5C13.0449 8.5 12 9.54494 12 10.8333C12 12.1217 13.0449 13.1667 14.3333 13.1667C15.6217 13.1667 16.6667 12.1217 16.6667 10.8333H14.3333V8.5Z" fill="#FBE9E7"/>
<path d="M15.1113 7.7222V10.0555H17.4447C17.4447 8.76714 16.3997 7.7222 15.1113 7.7222Z" fill="#FBE9E7"/>
<path d="M13.1667 19L5 17.4444V6.55556L13.1667 5V19Z" fill="#E64A19"/>
<path d="M9.21056 9.2778H7.33301V14.7222H8.49967V12.8466H9.10323C9.74684 12.8466 10.2606 12.6771 10.6452 12.3395C11.0294 12.0016 11.2223 11.559 11.2215 11.0126C11.2219 9.85608 10.5511 9.2778 9.21056 9.2778ZM9.0029 11.9164H8.49967V10.2193H9.0029C9.64106 10.2193 9.95995 10.4993 9.95995 11.0585C9.95995 11.631 9.64106 11.9164 9.0029 11.9164Z" fill="white"/>
</svg>