<svg width="16" height="14" viewBox="0 0 16 14" fill="none" xmlns="http://www.w3.org/2000/svg">
<path fill-rule="evenodd" clip-rule="evenodd" d="M2.375 7C2.375 3.2725 5.3975 0.25 9.125 0.25C12.8525 0.25 15.875 3.2725 15.875 7C15.875 10.7275 12.8525 13.75 9.125 13.75C7.2575 13.75 5.5775 12.9925 4.355 11.77L5.42 10.705C6.365 11.6575 7.6775 12.25 9.125 12.25C12.0275 12.25 14.375 9.9025 14.375 7C14.375 4.0975 12.0275 1.75 9.125 1.75C6.2225 1.75 3.875 4.0975 3.875 7H6.125L3.125 9.9925L0.125 7H2.375ZM8.37481 7.75V4H9.49981V7.1125L12.1398 8.68L11.5623 9.64L8.37481 7.75Z" fill="#007385"/>
</svg>
